<svg width="560" height="560" viewBox="0 0 560 560" fill="none" xmlns="http://www.w3.org/2000/svg">
<path d="M441.119 194.917L441.08 194.826C438.284 190.636 435.223 186.629 431.915 182.829C430.868 181.638 429.891 180.568 428.928 179.558L428.813 179.437L428.659 179.488C408.173 160.145 382.926 157.918 359.389 173.378L359.326 173.421L359.294 173.49C358.828 174.515 358.503 175.598 358.327 176.71L358.303 176.932C358.271 177.231 358.238 177.526 358.195 177.836C358.16 178.26 358.148 178.686 358.157 179.112C358.165 179.246 358.144 179.38 358.096 179.505C358.049 179.63 357.975 179.744 357.881 179.838L357.823 179.894L357.806 179.971C356.64 185.3 354.073 189.661 350.409 192.58C347.565 194.886 344.018 196.149 340.357 196.157C338.575 196.15 336.805 195.871 335.108 195.33C333.962 194.964 332.882 194.417 331.908 193.712C330.672 193.142 329.007 192.547 327.055 193.013C325.696 193.342 324.488 194.008 323.585 194.552C319.322 197.231 315.304 200.282 311.578 203.668L311.539 203.713C309.158 207.146 307.208 210.859 305.734 214.768C300.292 229.008 301.052 238.398 301.937 249.292C302.114 251.476 302.297 253.732 302.428 256.073C302.45 256.683 302.626 257.277 302.941 257.8L303.083 258.026L303.309 257.882C303.618 257.681 303.886 257.422 304.097 257.119C304.644 256.372 304.944 255.396 305.011 254.132L304.675 251.121C304.675 251.082 304.675 251.041 304.662 250.992L304.584 250.264C304.575 250.18 304.582 250.094 304.603 250.012C304.603 249.825 304.603 249.639 304.629 249.394C304.729 248.058 305.206 246.689 306.042 245.325C306.319 244.88 306.625 244.455 306.958 244.05L307.207 243.662C308.202 242.116 309.331 240.365 308.995 238.032C308.911 237.446 308.853 236.977 308.808 236.55C308.75 236.109 308.728 235.665 308.745 235.221C308.754 235.124 308.76 235.034 308.767 234.928V234.887C308.776 234.667 308.799 234.449 308.838 234.233L309.051 233.276L309.404 232.342C309.475 232.155 309.561 231.974 309.661 231.801C309.719 231.696 309.775 231.59 309.82 231.499C310.431 230.401 311.228 229.417 312.176 228.592C312.476 228.31 312.796 228.051 313.133 227.816C313.294 227.698 313.452 227.582 313.585 227.476L313.958 227.241C314.339 226.991 314.732 226.76 315.136 226.55C315.961 226.117 316.753 225.792 317.516 225.477L317.561 225.458C317.802 225.359 318.044 225.26 318.28 225.159C320.256 224.396 322.342 223.709 324.656 223.057C327.858 222.178 331.109 221.484 334.391 220.978C335.216 220.803 336.071 220.577 336.534 219.91C336.823 219.505 336.907 219.014 336.791 218.393L336.771 218.34C336.499 217.814 336.259 217.273 336.05 216.718C335.647 215.644 335.409 214.515 335.345 213.369C335.274 212.184 335.435 210.997 335.819 209.873C336.218 208.75 336.829 207.715 337.62 206.823C338.406 205.952 339.336 205.223 340.37 204.669C341.384 204.117 342.482 203.735 343.62 203.54C344.756 203.334 345.919 203.314 347.062 203.478C348.177 203.623 349.268 203.915 350.308 204.344C351.325 204.755 352.299 205.265 353.216 205.867C355.124 207.088 356.763 208.568 358.111 209.856C359.458 211.144 360.724 212.47 361.963 213.776C363.539 215.419 365.025 216.97 366.63 218.443C369.99 221.557 373.163 223.545 376.318 224.525C376.482 224.568 376.645 224.614 376.809 224.663C377.083 224.743 377.369 224.825 377.675 224.889L379.111 225.202C379.437 225.273 379.764 225.331 380.089 225.389L380.567 225.475C381.065 225.568 381.558 225.648 382.026 225.71C384.156 226.048 386.303 226.207 387.934 226.307C388.857 226.36 389.801 226.391 390.811 226.408C393.46 226.363 397.102 225.94 398.141 222.772C399.103 219.845 395.634 216.677 393.338 214.581L392.896 214.178C392.067 213.47 391.216 212.791 390.63 212.328C390.419 212.152 390.285 211.901 390.256 211.628C390.226 211.355 390.303 211.082 390.471 210.864C390.639 210.647 390.884 210.503 391.156 210.463C391.427 210.423 391.704 210.489 391.927 210.648C393.146 211.555 394.574 212.645 395.929 213.855C397.1 214.863 398.281 215.985 399.646 217.386C400.232 217.995 400.803 218.61 401.358 219.231L401.406 219.268C401.539 219.353 401.689 219.407 401.845 219.426C402.002 219.445 402.16 219.429 402.31 219.378C402.842 219.192 403.316 218.566 403.728 217.497C404.385 215.046 405.459 212.727 406.902 210.64C409.795 206.412 413.995 202.815 419.054 200.239C424.112 197.663 429.507 196.448 434.653 196.67C435.32 196.702 435.997 196.762 436.681 196.846L438.146 196.861C438.333 196.861 438.553 196.885 438.777 196.905C439.458 196.969 440.231 197.042 440.75 196.784C441.224 196.536 441.336 195.931 441.119 194.917Z" fill="#FF4569"/>
<path d="M427.011 269.601C425.103 269.093 423.028 269.3 421.021 269.5C420.547 269.547 420.078 269.593 419.619 269.629C417.547 269.793 415.477 269.954 413.409 270.112C410.622 270.428 407.771 270.698 404.69 270.941C396.499 271.604 389.235 271.688 382.476 271.186C378.763 270.921 375.067 270.456 371.403 269.795C368.107 269.2 364.56 268.365 360.56 267.247C359.794 267.038 359.033 266.82 358.273 266.603C355.451 265.798 352.785 265.037 350.11 264.697C347.87 264.538 344.686 264.574 343.004 266.73L342.978 266.764V266.805C342.953 267.353 343.074 267.898 343.327 268.386C351.045 283.692 358.923 295.497 367.431 304.472C371.007 306.988 375.999 309.943 381.597 309.943C383.458 309.945 385.304 309.611 387.046 308.958C390.382 307.711 393.37 305.585 396.258 303.528C396.861 303.098 397.462 302.671 398.061 302.253C401.397 299.925 404.738 297.598 408.083 295.271L413.752 290.713C418.824 286.158 423.855 281.527 428.719 276.922C428.906 276.644 429.092 276.362 429.326 276.05L429.512 275.787C430.235 274.805 430.916 273.879 430.498 272.461C429.953 270.558 427.877 269.827 427.011 269.601Z" fill="#FF4569"/>
<path d="M202.098 296.188L184.32 255.414L183.848 254.464L183.379 253.531L183.363 253.465C183.329 253.333 183.295 253.197 183.251 253.064L183.176 252.838L183.099 252.607L163.985 208.764C163.895 208.56 163.788 208.363 163.666 208.176L163.656 208.161H163.64C163.529 208.107 163.419 208.057 163.311 208.01C163.234 207.823 163.144 207.642 163.04 207.469L163.027 207.454C162.32 206.831 161.406 206.493 160.464 206.506C159.521 206.519 158.617 206.882 157.927 207.525L134.796 229.133C131.9 231.853 129.973 235.445 129.308 239.361L127.189 252.026C126.416 256.602 124.165 260.798 120.781 263.973L84.5675 297.859L84.5339 297.89L84.5526 297.933C91.4145 313.833 98.2751 329.734 105.134 345.636L118.412 376.413C118.786 377.32 119.472 378.063 120.346 378.508L120.387 378.528L200.592 303.468C201.562 302.557 202.226 301.369 202.496 300.066C202.766 298.763 202.627 297.409 202.098 296.188ZM162.669 304.618C163.04 304.939 163.34 305.334 163.548 305.778C163.757 306.222 163.87 306.705 163.88 307.196C163.89 307.686 163.796 308.173 163.606 308.625C163.415 309.078 163.131 309.485 162.773 309.82L147.956 323.74C147.308 324.354 146.449 324.695 145.557 324.694C145.164 324.696 144.773 324.633 144.4 324.507C143.794 324.297 143.258 323.925 142.85 323.431C142.442 322.938 142.177 322.341 142.085 321.707L140.528 311.231C140.5 311.037 140.403 310.86 140.255 310.731C140.107 310.602 139.918 310.531 139.722 310.529H139.677C138.043 310.643 136.404 310.388 134.882 309.783C131.72 308.523 129.328 305.863 128.149 302.303C126.969 298.743 127.146 294.696 128.649 290.928C129.633 288.446 131.171 286.222 133.146 284.424C133.227 284.34 133.316 284.263 133.411 284.194C137.267 280.889 142.029 279.901 146.147 281.533C152.005 283.87 154.939 290.821 153.126 298.062L152.957 298.738C152.928 298.855 152.938 298.978 152.986 299.088C153.035 299.199 153.118 299.29 153.224 299.348L162.058 304.201C162.23 304.297 162.393 304.408 162.546 304.532L162.669 304.618Z" fill="#8066FF"/>
<path d="M96.88 356.287V356.242L76.6398 309.814C76.0241 308.397 75.768 306.849 75.8944 305.309C76.0207 303.769 76.5255 302.283 77.364 300.985L77.3846 300.931C77.4175 300.78 77.4874 300.639 77.588 300.522C78.8349 299.029 80.1248 297.472 81.1104 295.719C83.5987 289.139 81.8851 283.369 76.5296 280.287C74.9664 279.389 73.226 278.843 71.4298 278.687C69.6337 278.531 67.8251 278.769 66.1304 279.384C64.4635 280.343 62.9683 281.574 61.8483 282.541L59.6232 284.618C59.6071 284.639 59.5922 284.661 59.5784 284.683L59.5504 284.725C59.4336 284.922 59.2571 285.077 59.0464 285.167L42.392 300.67C41.6164 301.388 41.0898 302.334 40.8884 303.371C40.687 304.409 40.8214 305.484 41.272 306.439V306.479L41.3262 306.537C41.4721 306.693 41.628 306.839 41.7928 306.975C41.8152 307.098 41.8432 307.225 41.8824 307.384L41.9123 307.448C41.9787 307.54 42.0524 307.628 42.1326 307.709L90.3616 359.488L90.4064 359.537L90.4718 359.548C90.5371 359.559 90.6024 359.569 90.6771 359.578C91.0168 359.974 91.3621 360.369 91.7187 360.773L91.756 360.802C93.0104 361.579 94.3488 362.328 95.6443 362.529C95.851 362.563 96.0601 362.581 96.2696 362.583C96.9491 362.583 97.4493 362.367 97.7629 361.937C98.8568 360.425 97.048 356.877 96.9715 356.728C96.9033 356.591 96.8718 356.439 96.88 356.287Z" fill="#8066FF"/>
<path d="M132.427 217.418L132.416 217.405C128.272 212.819 123.863 210.069 119.31 209.229C114.856 208.408 110.578 209.511 106.585 212.511L60.1067 253.105L59.8771 253.305L60.1795 253.337C60.4338 253.361 60.69 253.355 60.9429 253.32C67.8496 252.456 76.4755 258.244 81.0749 264.13C85.8592 270.243 89.6168 277.383 92.9656 284.172C93.1325 284.525 93.3777 284.835 93.6824 285.079L93.772 285.15L97.2925 281.85L118.733 261.785C121.636 259.059 123.567 255.458 124.23 251.532L126.373 238.868C126.917 235.658 128.195 232.618 130.107 229.983L130.127 229.942C130.181 229.76 130.274 229.593 130.402 229.453L130.497 229.346C132.246 227.396 134.23 225.184 134.26 222.412C134.264 220.827 133.685 219.242 132.427 217.418Z" fill="#1DFFC4"/>
<path d="M277.639 198.149C276.932 197.598 276.192 197.09 275.423 196.629C279.654 190.936 281.493 183.816 280.547 176.786C279.601 169.756 275.946 163.375 270.361 159.003C258.556 149.748 241.416 151.831 232.161 163.636C229.037 167.618 227.091 172.396 226.546 177.429C222.269 173.986 217.966 170.572 213.636 167.186C210.167 164.466 206.682 161.764 203.183 159.079C199.703 156.38 196.181 153.724 192.679 151.053C185.661 145.719 178.591 140.449 171.47 135.242C164.34 130.041 157.173 124.899 149.864 119.935C148.915 119.297 147.759 119.042 146.63 119.221C145.501 119.4 144.481 120 143.775 120.899C143.07 121.799 142.731 122.933 142.828 124.072C142.924 125.212 143.447 126.273 144.293 127.042C146.16 128.725 148.044 130.397 149.946 132.057L130.947 156.294C130.429 156.954 130.046 157.709 129.821 158.516C129.595 159.324 129.531 160.168 129.632 161C129.733 161.832 129.997 162.636 130.41 163.366C130.822 164.096 131.374 164.738 132.035 165.254L153.739 182.258C154.862 183.134 156.245 183.611 157.67 183.613C157.927 183.612 158.185 183.597 158.441 183.57C160.119 183.364 161.647 182.502 162.691 181.173L180.85 157.998C182.146 159.055 183.443 160.123 184.744 161.172C188.177 163.934 191.598 166.718 195.052 169.454C198.505 172.191 201.958 174.948 205.423 177.668C209.737 181.052 214.072 184.412 218.428 187.748C213.694 189.483 209.539 192.506 206.431 196.476C197.182 208.286 199.259 225.421 211.07 234.676C216.658 239.051 223.735 241.07 230.792 240.301C237.848 239.531 244.324 236.035 248.838 230.558C249.471 231.194 250.142 231.792 250.846 232.348C254.65 235.346 259.353 236.976 264.197 236.975C265.085 236.976 265.972 236.921 266.853 236.811C269.687 236.477 272.427 235.584 274.913 234.183C277.399 232.782 279.583 230.901 281.337 228.65C288.721 219.214 287.063 205.533 277.639 198.149ZM239.232 222.173C237.469 224.421 235.078 226.096 232.363 226.987C229.647 227.877 226.729 227.942 223.976 227.174C221.224 226.406 218.761 224.839 216.899 222.672C215.037 220.505 213.859 217.834 213.514 214.997C213.17 212.16 213.674 209.285 214.963 206.735C216.252 204.184 218.268 202.073 220.757 200.669C223.245 199.264 226.094 198.629 228.944 198.843C231.794 199.057 234.516 200.112 236.766 201.873C239.782 204.24 241.735 207.707 242.198 211.514C242.66 215.32 241.593 219.154 239.232 222.174V222.173ZM242.196 171.504C243.363 170.004 244.817 168.751 246.472 167.818C248.128 166.885 249.952 166.29 251.839 166.068C252.426 165.994 253.017 165.956 253.609 165.956C256.878 165.962 260.049 167.076 262.604 169.116C265.159 171.155 266.948 174.001 267.678 177.187C268.408 180.374 268.037 183.714 266.625 186.663C265.213 189.612 262.843 191.995 259.903 193.424C256.962 194.853 253.624 195.243 250.433 194.531C247.242 193.819 244.387 192.047 242.333 189.504C240.278 186.96 239.146 183.796 239.122 180.527C239.097 177.257 240.181 174.076 242.196 171.502V171.504ZM257.178 209.714C257.901 208.785 258.802 208.009 259.827 207.43C260.852 206.851 261.982 206.481 263.151 206.341C263.516 206.297 263.883 206.274 264.251 206.272C266.28 206.276 268.247 206.967 269.832 208.233C271.418 209.498 272.528 211.264 272.981 213.241C273.434 215.218 273.204 217.291 272.328 219.12C271.452 220.95 269.982 222.429 268.157 223.316C266.332 224.203 264.261 224.445 262.281 224.003C260.301 223.562 258.529 222.462 257.255 220.884C255.98 219.306 255.277 217.343 255.262 215.314C255.246 213.286 255.918 211.312 257.169 209.714H257.178Z" fill="#FFEC61"/>
<path d="M315.037 162.419L310.277 162.331C309.62 162.253 308.846 162.144 308.381 161.652C308.165 161.407 308.003 161.12 307.905 160.81L306.132 150.407C306.066 150.07 305.874 149.772 305.594 149.574C305.314 149.376 304.969 149.294 304.63 149.345C304.291 149.396 303.984 149.575 303.775 149.847C303.565 150.118 303.469 150.46 303.505 150.801L305.232 164.095V164.119C305.283 164.501 305.475 164.849 305.77 165.096C306.065 165.342 306.442 165.469 306.826 165.452L315.071 165.079C315.415 165.062 315.739 164.913 315.975 164.662C316.211 164.411 316.34 164.078 316.336 163.733C316.331 163.389 316.193 163.06 315.95 162.815C315.708 162.571 315.38 162.43 315.036 162.422L315.037 162.419Z" fill="black"/>
<path d="M520.27 141.45C514.761 135.186 503.283 135.016 486.171 140.946C470.318 146.44 450.05 157.108 427.558 171.808C427.334 171.954 427.151 172.155 427.026 172.391C426.901 172.627 426.837 172.89 426.841 173.158C424.008 170.466 421.016 167.947 417.881 165.613C414.874 163.363 411.699 161.348 408.382 159.587C405.046 157.843 401.527 156.358 397.794 155.437C395.911 154.967 393.988 154.675 392.05 154.566C390.087 154.499 388.122 154.663 386.196 155.055C382.409 155.801 378.849 157.108 375.422 158.626C372.018 160.154 368.703 161.875 365.493 163.779C362.693 165.431 359.994 167.164 357.332 169.04C355.536 166.936 354.006 164.631 352.949 162.144C352.334 160.71 351.901 159.205 351.658 157.664C351.539 156.91 351.48 156.148 351.482 155.385C351.482 155.012 351.508 154.638 351.54 154.265C351.56 154.078 351.583 153.909 351.609 153.733L351.626 153.67C355.359 150.173 358.564 146.035 360.786 141.35C363.082 136.532 364.332 131.117 363.959 125.67C363.781 122.935 363.15 120.249 362.092 117.721C361.028 115.175 359.49 112.853 357.56 110.88C355.629 108.908 353.351 107.308 350.84 106.163C348.646 105.165 346.329 104.463 343.95 104.074C343.33 102.629 342.549 101.258 341.622 99.988C340.507 98.4814 339.21 97.1183 337.76 95.9299C334.886 93.5611 331.555 91.8661 328.08 90.7387C324.584 89.5885 320.915 89.0567 317.236 89.1669C316.77 89.1781 316.303 89.2248 315.838 89.2621C315.373 89.2995 314.946 89.3517 314.5 89.4115C313.602 89.5291 312.71 89.6672 311.823 89.8371C310.035 90.1699 308.274 90.6334 306.553 91.224C303.1 92.3925 299.848 94.1621 296.916 96.2024C293.983 98.2427 291.304 100.479 288.473 102.2C287.086 103.058 285.611 103.765 284.073 104.309C282.544 104.84 280.956 105.184 279.345 105.334C276.104 105.653 272.752 105.276 269.451 104.587L269.42 104.576C269.276 104.548 269.13 104.541 268.985 104.556C268.778 104.571 268.576 104.628 268.392 104.721C268.207 104.815 268.042 104.944 267.907 105.102C267.773 105.259 267.67 105.442 267.606 105.639C267.542 105.836 267.518 106.044 267.534 106.251C267.609 107.184 267.721 107.983 267.854 108.838C267.986 109.693 268.15 110.518 268.331 111.341C268.693 113.006 269.156 114.648 269.718 116.256C270.646 119.001 271.93 121.613 273.538 124.023C274.013 124.644 274.526 125.235 275.074 125.793C275.868 126.613 276.71 127.385 277.598 128.104C278.49 128.832 279.425 129.522 280.398 130.157C281.365 130.8 282.365 131.393 283.394 131.932L283.41 131.943C283.473 131.975 283.529 132.018 283.574 132.072C283.62 132.125 283.654 132.187 283.676 132.254C283.697 132.321 283.704 132.391 283.698 132.461C283.692 132.531 283.671 132.598 283.638 132.66C283.579 132.773 283.482 132.86 283.364 132.907C283.247 132.954 283.116 132.957 282.996 132.916C281.846 132.523 280.718 132.067 279.617 131.551C279.279 131.393 278.802 131.146 278.298 130.876C278.031 130.732 277.732 130.663 277.43 130.674C277.128 130.685 276.834 130.777 276.58 130.94C276.325 131.103 276.119 131.331 275.982 131.601C275.845 131.871 275.783 132.172 275.802 132.474C276.336 139.546 279.733 146.029 285.004 150.136C285.313 150.467 285.683 150.736 286.093 150.927C287.447 151.855 288.903 152.626 290.433 153.223C290.522 153.563 290.603 153.909 290.692 154.248C291.658 157.797 292.828 161.287 294.194 164.702C294.513 165.551 294.928 166.408 295.294 167.263C295.659 168.118 296.117 168.943 296.542 169.781C297.476 171.412 298.428 173.044 299.602 174.541L300.027 175.101L300.49 175.648C300.798 176.01 301.101 176.381 301.424 176.732C302.094 177.423 302.742 178.119 303.477 178.746C304.915 180.044 306.511 181.156 308.226 182.056C311.695 183.874 315.588 184.731 319.5 184.537C321.367 184.43 323.215 184.111 325.009 183.587C325.023 183.63 325.039 183.672 325.058 183.714L327.671 188.754C323.213 191.102 305.612 201.096 298.125 216.115C291.67 229.057 294.22 244.001 296.468 257.182C297.003 260.333 297.515 263.329 297.875 266.142C297.873 266.149 297.873 266.156 297.875 266.162C298.534 271.294 298.693 275.768 297.593 279.265C294.911 278.749 292.227 278.26 289.544 277.762C286.485 277.189 283.423 276.625 280.353 276.099C278.057 275.451 276.002 273.952 274.28 272.041C272.559 270.129 271.107 267.848 269.774 265.479C268.442 263.11 267.288 260.613 265.832 258.078C265.079 256.777 264.194 255.557 263.191 254.438C262.137 253.248 260.877 252.259 259.472 251.517C258.016 250.77 256.232 250.354 254.462 250.65C252.708 250.943 251.114 251.846 249.962 253.2C248.88 254.477 248.145 256.01 247.826 257.652C247.514 259.221 247.507 260.835 247.806 262.407C247.869 262.78 247.96 263.172 248.056 263.549C248.151 263.926 248.242 264.245 248.349 264.596C248.55 265.287 248.774 265.978 249.013 266.663C249.168 267.088 249.332 267.508 249.497 267.926C247.577 266.796 245.782 265.465 244.141 263.958C241.272 261.281 237.563 260.053 234.227 260.669C232.448 260.976 230.823 261.87 229.611 263.208C225.898 260.445 221.179 260.37 218.038 263.234C214.291 266.644 213.618 273.721 220.254 282.051C219.979 282.482 219.75 282.939 219.568 283.416C219.218 284.356 219.022 285.346 218.99 286.349C218.964 288.314 219.499 290.168 220.276 291.799C221.056 293.39 222.04 294.872 223.203 296.208C224.335 297.538 225.607 298.742 226.996 299.8C228.335 300.834 229.731 301.792 231.177 302.669C234.02 304.39 236.954 305.956 239.966 307.36C242.941 308.773 245.939 310.085 248.961 311.349C255.039 314.037 260.908 316.512 266.541 318.728C250.746 339.427 227.576 374.453 239.661 388.198C242.476 391.401 246.893 393.012 252.847 393.012C255.907 393.012 259.381 392.581 263.25 391.731C273.801 389.404 287.02 384.007 302.549 375.678C334.326 358.65 372.333 331.231 409.576 298.476C446.82 265.722 478.871 231.53 499.815 202.192C506.143 193.33 511.234 185.228 515.09 177.886C515.484 177.326 515.876 176.743 516.27 176.17C516.655 175.629 516.871 174.986 516.891 174.322C518.338 171.373 519.627 168.349 520.753 165.263C524.701 154.323 524.533 146.302 520.27 141.45ZM319.34 181.356C316 181.518 312.678 180.783 309.719 179.226C308.235 178.442 306.855 177.474 305.612 176.346C304.965 175.799 304.39 175.172 303.8 174.567C303.512 174.253 303.24 173.919 302.971 173.594L302.557 173.105L302.183 172.59C301.131 171.246 300.255 169.747 299.404 168.245C299.016 167.468 298.612 166.705 298.25 165.913C297.888 165.122 297.534 164.33 297.22 163.496C295.909 160.202 294.787 156.837 293.86 153.416C293.487 152.014 293.143 150.601 292.824 149.182C292.843 148.983 292.814 148.783 292.738 148.598C292.686 148.46 292.637 148.316 292.594 148.178C292.531 147.859 292.467 147.536 292.408 147.211C292.337 146.623 292.39 146.026 292.564 145.459C292.738 144.893 293.029 144.369 293.418 143.922C293.749 143.673 294.097 143.448 294.459 143.248C294.9 143.011 295.358 142.807 295.829 142.638C296.296 142.462 296.779 142.33 297.306 142.171L297.545 142.102C297.927 141.988 298.261 141.749 298.492 141.423C298.723 141.097 298.839 140.704 298.821 140.305C298.802 139.906 298.651 139.524 298.391 139.221C298.131 138.918 297.778 138.711 297.386 138.632C296.017 138.386 294.606 138.547 293.328 139.095C292.993 139.2 292.65 139.278 292.303 139.328C291.756 139.397 291.416 139.057 291.172 138.626C290.838 137.389 290.778 135.705 291.814 134.807C292.208 134.462 292.747 134.35 293.339 134.303C296.547 134.511 299.768 134.408 302.956 133.995C306.34 133.56 309.624 132.63 312.752 131.721C314.309 131.286 315.849 130.85 317.274 130.697C317.927 130.611 318.59 130.626 319.239 130.739C319.811 130.849 320.35 131.091 320.811 131.447C321.767 132.158 322.543 133.424 323.154 134.788C323.768 136.216 324.274 137.688 324.667 139.192C324.75 139.494 324.92 139.766 325.156 139.972C325.392 140.178 325.684 140.311 325.995 140.352C326.305 140.394 326.622 140.342 326.903 140.205C327.185 140.068 327.42 139.85 327.579 139.58L327.596 139.559C328.468 138.083 329.65 136.829 331.13 136.069C332.626 135.282 334.309 134.92 335.996 135.022C339.407 135.197 342.765 137.206 344.21 140.207C344.564 140.964 344.811 141.767 344.943 142.593C345.087 143.445 345.128 144.312 345.064 145.174C344.945 146.902 344.392 148.571 343.455 150.028C342.537 151.477 341.232 152.64 339.688 153.388C338.129 154.126 336.389 154.399 334.678 154.174C334.33 154.122 333.975 154.211 333.692 154.422C333.409 154.632 333.221 154.946 333.169 155.295C333.118 155.643 333.207 155.998 333.417 156.281C333.627 156.564 333.941 156.752 334.29 156.804C336.52 157.174 338.809 156.894 340.883 155.995C341.519 155.711 342.127 155.367 342.699 154.971C342.792 154.93 342.879 154.878 342.959 154.816C343.974 154.05 345.854 152.447 347.224 153.345C347.878 153.776 347.971 154.875 348.122 155.566C348.197 155.88 348.266 156.188 348.335 156.499C348.367 157.059 348.424 157.599 348.51 158.146C348.789 159.95 349.296 161.712 350.019 163.389C350.37 164.218 350.763 165.028 351.198 165.816C351.239 165.92 351.292 166.018 351.357 166.109C351.383 166.146 351.406 166.184 351.432 166.215C352.03 167.263 352.69 168.274 353.408 169.243C354.444 171.022 355.23 172.855 355.544 174.89C355.256 181.377 352.776 186.982 348.606 190.309C345.232 192.985 341.103 193.855 336.881 192.801C333.879 191.738 331.615 189.161 331.546 185.808C331.477 182.334 333.767 179.863 336.026 177.531C336.154 177.402 336.255 177.248 336.323 177.079C337.323 176.144 338.263 175.147 339.138 174.093C339.362 173.828 339.473 173.487 339.449 173.142C339.424 172.796 339.266 172.474 339.007 172.244C338.748 172.013 338.41 171.893 338.064 171.909C337.718 171.925 337.392 172.076 337.155 172.329L337.139 172.346C334.789 174.865 332.041 176.982 329.006 178.61C325.976 180.165 322.676 181.181 319.34 181.356ZM300.974 217.558C306.143 207.181 316.84 199.143 323.747 194.785C324.815 194.143 325.931 193.573 327.137 193.282C328.838 192.873 330.351 193.282 331.804 193.962C332.786 194.675 333.876 195.226 335.033 195.593C336.756 196.143 338.553 196.426 340.362 196.433C344.084 196.43 347.691 195.147 350.579 192.799C354.334 189.812 356.925 185.308 358.07 180.038C358.19 179.918 358.284 179.775 358.345 179.617C358.406 179.459 358.434 179.289 358.426 179.12C358.417 178.701 358.43 178.283 358.463 177.865C358.516 177.492 358.553 177.119 358.596 176.745C359.077 173.73 360.65 170.998 363.016 169.068C364.366 168.202 365.73 167.358 367.108 166.55C370.213 164.712 373.421 163.052 376.714 161.577C379.992 160.132 383.376 158.909 386.794 158.241C388.468 157.901 390.177 157.758 391.884 157.815C393.611 157.916 395.324 158.179 397.001 158.601C400.402 159.441 403.695 160.828 406.851 162.486C410.016 164.175 413.046 166.104 415.916 168.256C421.702 172.549 426.946 177.589 431.715 183.002C435.017 186.792 438.072 190.79 440.862 194.971C441.02 195.718 441.026 196.336 440.655 196.523C440.033 196.831 438.848 196.581 438.174 196.571L436.707 196.554C436.036 196.469 435.363 196.411 434.687 196.379C429.188 196.14 423.774 197.542 418.956 199.976C414.139 202.41 409.81 205.921 406.706 210.463C405.248 212.576 404.162 214.922 403.497 217.401C403.123 218.363 402.455 219.537 401.568 219.01C401.011 218.388 400.442 217.775 399.862 217.172C398.662 215.94 397.436 214.745 396.129 213.625C394.822 212.505 393.488 211.432 392.112 210.405C391.833 210.19 391.48 210.095 391.131 210.14C390.782 210.186 390.465 210.368 390.25 210.647C390.035 210.926 389.94 211.279 389.985 211.628C390.03 211.977 390.213 212.294 390.492 212.509L390.523 212.529C391.27 213.125 392.017 213.73 392.75 214.351C395.024 216.444 398.88 219.718 397.914 222.66C396.963 225.561 393.695 226.065 390.831 226.113C389.876 226.096 388.924 226.065 387.974 226.012C386.002 225.891 384.037 225.725 382.092 225.417C381.608 225.353 381.119 225.273 380.641 225.183C380.163 225.094 379.674 225.019 379.191 224.913L377.757 224.599C377.274 224.498 376.859 224.355 376.408 224.237C372.861 223.138 369.703 220.877 366.834 218.217C363.964 215.557 361.308 212.522 358.322 209.647C356.819 208.214 355.23 206.804 353.386 205.625C352.455 205.013 351.466 204.496 350.433 204.079C349.373 203.643 348.26 203.346 347.123 203.198C345.953 203.031 344.764 203.052 343.601 203.261C342.434 203.462 341.309 203.853 340.269 204.419C339.209 204.988 338.255 205.736 337.448 206.629C336.634 207.546 336.005 208.612 335.595 209.769C335.199 210.924 335.033 212.146 335.106 213.366C335.172 214.538 335.416 215.693 335.828 216.793C336.04 217.357 336.285 217.909 336.562 218.445C336.617 218.664 336.626 218.892 336.588 219.115C336.551 219.338 336.467 219.551 336.343 219.74C335.918 220.341 335.089 220.549 334.361 220.702C331.074 221.207 327.818 221.902 324.611 222.785C322.454 223.39 320.318 224.08 318.209 224.894C317.156 225.34 316.142 225.717 315.035 226.296C314.494 226.567 313.983 226.912 313.467 227.229C312.978 227.603 312.458 227.941 312.011 228.383C311.047 229.225 310.234 230.228 309.611 231.347C309.449 231.634 309.304 231.93 309.176 232.234L308.825 233.167L308.601 234.16C308.549 234.498 308.515 234.838 308.5 235.179C308.481 235.643 308.503 236.107 308.564 236.566C308.607 237.044 308.67 237.539 308.75 238.06C309.101 240.486 307.778 242.284 306.753 243.899C306.419 244.305 306.112 244.732 305.835 245.179C305.088 246.402 304.502 247.821 304.384 249.366C304.367 249.579 304.358 249.792 304.358 250.005C304.334 250.1 304.328 250.2 304.341 250.298C304.362 250.494 304.384 250.686 304.405 250.882C304.416 250.971 304.422 251.069 304.431 251.147C304.543 252.151 304.655 253.15 304.765 254.154C304.707 255.179 304.483 256.157 303.899 256.954C302.966 258.25 301.392 258.378 300.352 257.167C299.656 256.355 299.385 255.216 299.178 254.149C297.153 242.097 295.374 228.782 300.972 217.556L300.974 217.558ZM234.128 265.602C234.315 264.514 235.062 263.977 235.956 263.721C237.996 263.721 240.175 264.635 241.97 266.308C243.422 267.648 244.988 268.858 246.65 269.926C248.446 271.18 250.592 272.608 251.166 274.872C251.974 278.046 248.993 279.414 246.602 278.277C246.357 278.139 246.124 277.995 245.89 277.851C245.862 277.836 245.836 277.818 245.81 277.799C245.718 277.727 245.616 277.668 245.508 277.624C241.401 275.063 238.325 272.248 235.504 269.304C234.733 268.21 233.904 266.945 234.127 265.601L234.128 265.602ZM266.76 360.569C266.76 360.537 266.743 360.511 266.739 360.479C266.766 360.502 266.794 360.521 266.825 360.537L266.76 360.569ZM345.746 298.876C344.799 307.302 342.511 313.497 338.891 317.356C332.479 324.199 323.958 327.146 313.555 327.146C296.959 327.146 275.557 319.639 250.253 308.461C250.253 308.461 250.253 308.461 250.242 308.461C250.23 308.461 250.23 308.461 250.225 308.45C247.238 307.175 244.274 305.857 241.367 304.455C238.461 303.053 235.581 301.592 232.883 299.923C230.186 298.254 227.597 296.432 225.674 294.153C224.688 293.028 223.85 291.78 223.182 290.44C222.558 289.202 222.222 287.838 222.199 286.451C222.221 285.82 222.341 285.197 222.555 284.603C222.775 284.029 223.106 283.504 223.528 283.058C224.4 282.134 225.574 281.554 226.837 281.421C227.482 281.339 228.135 281.365 228.771 281.495C230.089 281.776 231.304 282.416 232.282 283.343L232.656 283.717C232.773 283.823 232.938 284.01 233.081 284.151C233.374 284.459 233.66 284.767 233.968 285.066C235.182 286.283 236.501 287.391 237.91 288.376C239.318 289.341 240.796 290.201 242.331 290.948C245.349 292.441 248.429 293.589 251.477 294.767C251.805 294.898 252.171 294.893 252.494 294.753C252.818 294.614 253.073 294.352 253.204 294.024C253.334 293.697 253.329 293.331 253.19 293.007C253.051 292.683 252.788 292.428 252.461 292.298C249.459 291.054 246.463 289.791 243.647 288.35C242.256 287.642 240.921 286.831 239.652 285.923C238.401 285.011 237.228 283.997 236.146 282.89C235.87 282.619 235.605 282.33 235.338 282.04C235.194 281.891 235.088 281.775 234.912 281.594L234.412 281.094C233.727 280.432 232.955 279.867 232.116 279.414C231.695 279.182 231.258 278.978 230.81 278.803C230.35 278.639 229.88 278.506 229.402 278.406C228.439 278.201 227.448 278.154 226.47 278.268C226.213 278.295 225.957 278.336 225.704 278.389C224.643 278.513 223.567 278.362 222.58 277.952C221.593 277.542 220.728 276.886 220.067 276.046C217.569 271.26 218.107 267.519 220.188 265.623C222.139 263.848 225.644 263.637 228.631 266.59C228.721 266.713 228.828 266.823 228.95 266.915C228.976 266.941 228.999 266.967 229.025 266.995L229.699 267.742C234.145 272.651 238.401 277.336 245.566 281.4C246.247 281.996 246.975 282.536 247.744 283.015C249.275 283.998 251.117 285.068 250.984 287.142C250.952 287.406 251.016 287.673 251.163 287.895C251.31 288.118 251.531 288.28 251.787 288.353C251.982 288.475 252.205 288.543 252.435 288.549C252.787 288.56 253.129 288.431 253.386 288.19C253.643 287.949 253.794 287.615 253.805 287.263C253.819 285.664 254.095 284.077 254.623 282.567C255.176 281.096 255.978 279.73 256.991 278.529C257.179 278.299 257.296 278.02 257.329 277.725C257.362 277.43 257.31 277.132 257.178 276.866L257.152 276.814C255.888 274.353 254.634 271.884 253.529 269.397C252.969 268.154 252.461 266.905 252.02 265.647C251.796 265.014 251.589 264.383 251.404 263.74C251.309 263.42 251.218 263.092 251.134 262.778C251.05 262.465 250.99 262.183 250.938 261.88C250.714 260.709 250.714 259.505 250.938 258.334C251.148 257.229 251.636 256.196 252.356 255.332C253.021 254.542 253.943 254.013 254.96 253.839C255.948 253.674 257.014 253.891 258.031 254.399C259.09 254.966 260.038 255.718 260.831 256.62C261.682 257.577 262.432 258.618 263.071 259.728C264.389 262.018 265.584 264.594 266.976 267.066C268.369 269.537 269.903 272.018 271.912 274.223C272.922 275.354 274.062 276.364 275.307 277.23C276.6 278.121 278.03 278.794 279.541 279.222H279.552C279.572 279.222 279.6 279.222 279.627 279.233L279.675 279.25C282.766 279.845 285.859 280.403 288.951 280.959C292.042 281.516 295.14 282.079 298.237 282.606L307.535 284.2C310.632 284.741 313.734 285.253 316.839 285.762C317.18 285.813 317.527 285.729 317.808 285.529C318.088 285.328 318.279 285.026 318.341 284.687C318.404 284.348 318.331 283.998 318.14 283.711C317.949 283.424 317.653 283.222 317.316 283.149L312.885 282.262C312.868 282.255 312.85 282.248 312.833 282.242C306.859 280.579 302.6 275.914 301.446 270.034C301.388 269.211 301.314 268.371 301.218 267.51C301.289 266.117 301.635 264.751 302.238 263.493C304.192 260.465 307.464 259.142 310.212 258.573C312.857 258.244 314.52 259.928 315.786 262.005C316.128 262.751 316.577 263.443 317.119 264.059C318.586 265.739 320.589 266.805 322.644 267.288C324.506 267.697 326.432 267.717 328.302 267.346C328.331 267.345 328.36 267.341 328.388 267.335C329.944 267.021 331.766 266.588 333.323 267.18C334.354 267.553 335.113 268.359 335.761 269.233C336.293 270.179 336.829 271.1 337.361 272.016C337.378 272.048 337.387 272.08 337.404 272.111C339.976 276.707 343.424 281.478 344.911 286.567C346.046 290.375 345.893 294.726 345.744 298.876H345.746ZM378.472 320.43C378.47 320.403 378.47 320.377 378.472 320.35C378.488 320.363 378.502 320.377 378.515 320.393C378.498 320.402 378.483 320.414 378.47 320.428L378.472 320.43ZM429.225 275.972C429.007 276.274 428.799 276.562 428.615 276.849C423.754 281.445 418.772 286.033 413.67 290.614L408.007 295.167C404.67 297.489 401.332 299.814 397.992 302.142C394.507 304.569 391.016 307.334 387.005 308.831C378.127 312.135 369.988 306.54 363.283 301.153C360.308 298.013 357.2 294.511 354.039 290.58C353.893 290.333 353.714 290.106 353.507 289.906C350.862 286.586 348.189 282.962 345.539 278.999C345.502 278.858 345.444 278.722 345.369 278.596C343.502 275.638 341.208 272.098 342.304 268.438C343.351 264.942 346.92 264.602 350.108 264.83C353.498 265.261 356.983 266.401 360.532 267.374C364.08 268.346 367.715 269.259 371.386 269.924C375.055 270.587 378.756 271.052 382.474 271.316C389.896 271.863 397.344 271.667 404.703 271.072C407.615 270.843 410.522 270.567 413.426 270.243C415.493 270.084 417.561 269.923 419.63 269.759C421.999 269.573 424.64 269.106 426.978 269.728C428.402 270.101 429.931 270.954 430.382 272.496C430.827 273.974 430.005 274.893 429.225 275.972ZM456.57 241.28C456.31 244.739 455.358 248.08 453.548 250.929C451.737 253.777 449.144 256.125 446.189 257.962C443.234 259.799 439.925 261.203 436.531 262.33C433.104 263.442 429.613 264.348 426.078 265.041C418.975 266.454 411.723 267.281 404.454 267.841C397.186 268.401 389.924 268.621 382.71 268.096C379.105 267.842 375.518 267.395 371.961 266.758C368.415 266.116 364.905 265.255 361.394 264.271C359.636 263.782 357.877 263.273 356.076 262.789C354.275 262.306 352.421 261.856 350.476 261.636C348.559 261.437 346.629 261.396 344.706 261.514C342.815 261.61 340.945 261.807 339.095 262.056C335.391 262.56 331.736 263.325 328.162 264.109C326.599 264.479 324.973 264.497 323.402 264.161C321.894 263.81 320.512 263.041 319.56 261.946C319.09 261.426 318.732 260.815 318.51 260.15C318.288 259.485 318.205 258.782 318.268 258.083C318.407 256.708 319.172 255.384 320.303 254.317C321.434 253.249 322.916 252.431 324.496 251.741C326.111 251.062 327.775 250.504 329.474 250.072C336.392 248.334 343.685 247.735 350.941 247.384H350.952C351.298 247.365 351.624 247.212 351.859 246.958C352.094 246.703 352.22 246.366 352.21 246.019C352.2 245.673 352.056 245.343 351.807 245.102C351.558 244.861 351.224 244.726 350.877 244.727C347.179 244.744 343.476 244.886 339.774 245.237C336.073 245.588 332.367 246.103 328.698 247.033C326.837 247.49 325.013 248.087 323.241 248.817C322.33 249.201 321.446 249.646 320.596 250.15C320.223 250.369 319.868 250.602 319.517 250.858C317.949 251.666 316.383 252.489 314.789 253.232C313.163 253.992 311.537 254.735 309.805 253.667C308.907 253.107 308.291 252.211 307.765 251.293C307.599 250.757 307.54 250.194 307.589 249.635C307.733 247.744 309.002 245.862 310.677 244.418C311.491 243.711 312.372 243.086 313.307 242.551C313.53 242.487 313.737 242.375 313.912 242.222C314.778 241.771 315.707 241.373 316.637 240.99C321.106 239.215 325.881 238.041 330.689 237.166C335.527 236.32 340.409 235.75 345.311 235.459C345.653 235.428 345.971 235.266 346.196 235.006C346.421 234.746 346.537 234.408 346.519 234.065C346.501 233.721 346.351 233.398 346.1 233.163C345.849 232.928 345.517 232.799 345.173 232.803C340.151 232.994 335.146 233.493 330.185 234.297C327.105 234.808 324.052 235.475 321.039 236.294C320.986 236.294 320.927 236.305 320.869 236.314C318.84 236.766 312.108 239.002 311.741 235.598C311.741 235.508 311.73 235.411 311.741 235.327C311.75 235.121 311.769 234.915 311.799 234.711C311.847 234.509 311.888 234.302 311.931 234.095L312.159 233.494C312.24 233.29 312.336 233.093 312.446 232.904C312.891 232.101 313.474 231.382 314.167 230.78C315.56 229.456 317.376 228.691 319.394 227.862C321.38 227.086 323.411 226.38 325.472 225.773C329.61 224.564 333.838 223.69 338.117 223.16C338.796 223.07 339.472 223.001 340.151 222.936C340.469 223.006 340.801 222.976 341.102 222.85C342.25 222.764 343.392 222.701 344.534 222.675C346.644 222.604 348.756 222.721 350.846 223.026H350.857C351.198 223.074 351.545 222.988 351.824 222.786C352.102 222.583 352.292 222.28 352.351 221.94C352.41 221.601 352.335 221.252 352.142 220.966C351.948 220.681 351.652 220.483 351.314 220.412C350.468 220.254 349.625 220.153 348.785 220.073C348.602 219.963 348.396 219.899 348.184 219.886C346.019 219.754 343.93 219.04 342.138 217.819C340.687 216.853 338.695 215.482 338.382 213.633C338.269 212.689 338.369 211.732 338.675 210.833C339.247 209.302 340.374 208.043 341.831 207.305C342.57 206.905 343.369 206.629 344.196 206.487C345.024 206.333 345.871 206.316 346.703 206.438C347.57 206.55 348.419 206.775 349.227 207.109C350.068 207.45 350.874 207.872 351.633 208.369C353.196 209.362 354.655 210.642 356.074 211.992C358.917 214.711 361.588 217.778 364.661 220.593C366.203 222.033 367.862 223.341 369.622 224.504C371.435 225.702 373.403 226.644 375.472 227.304C375.993 227.442 376.54 227.612 377.044 227.718L378.569 228.047C379.079 228.159 379.594 228.234 380.106 228.329C380.617 228.424 381.125 228.515 381.642 228.579C383.695 228.898 385.748 229.068 387.815 229.189C396.066 229.621 404.296 228.689 412.253 226.821C412.587 226.737 412.875 226.528 413.057 226.237C413.24 225.946 413.303 225.595 413.233 225.259C413.163 224.922 412.965 224.626 412.682 224.432C412.399 224.237 412.051 224.16 411.712 224.217H411.701C411.658 224.217 411.615 224.228 411.568 224.237C409.576 224.082 407.717 223.567 406.946 221.527C406.538 220.442 406.506 219.274 406.618 218.116C407.193 216.016 408.12 214.029 409.36 212.24C412.091 208.234 416.039 205.025 420.416 202.798C424.794 200.571 429.72 199.328 434.564 199.547C435.479 199.589 436.391 199.686 437.295 199.84C439.77 200.418 442.21 201.221 444.227 202.81C445.822 204.064 447.07 205.811 448.196 207.644C450.195 211.724 451.899 215.94 453.296 220.263C454.4 223.684 455.27 227.177 455.9 230.716C456.495 234.255 456.835 237.813 456.57 241.278V241.28Z" fill="black"/>
<path d="M423.842 155.833C429.169 152.538 434.502 149.264 439.895 146.1L443.955 143.733L448.032 141.42L452.138 139.171L456.271 136.968C461.797 134.062 467.41 131.337 473.123 128.865C478.837 126.394 484.676 124.249 490.644 122.657H490.666C490.995 122.559 491.273 122.339 491.443 122.041C491.613 121.743 491.661 121.392 491.578 121.059C491.495 120.727 491.286 120.439 490.996 120.257C490.706 120.075 490.356 120.012 490.021 120.081C483.799 121.527 477.775 123.603 471.923 126.022C466.071 128.442 460.367 131.18 454.761 134.086C449.155 136.993 443.677 140.129 438.282 143.384C432.888 146.64 427.586 150.052 422.389 153.606C422.107 153.804 421.913 154.103 421.847 154.442C421.781 154.78 421.85 155.131 422.037 155.42C422.225 155.708 422.518 155.913 422.854 155.99C423.19 156.067 423.543 156.011 423.838 155.833H423.842Z" fill="black"/>
<path d="M477.094 276.746C464.873 288.932 452.553 301.013 439.718 312.558C426.882 324.104 413.715 335.261 400.195 345.972C393.422 351.314 386.59 356.584 379.624 361.665C372.684 366.784 365.627 371.736 358.452 376.52C351.305 381.339 343.991 385.898 336.595 390.305C329.2 394.712 321.675 398.892 314.009 402.78C313.703 402.939 313.47 403.21 313.36 403.538C313.251 403.865 313.273 404.222 313.422 404.533C313.571 404.844 313.835 405.086 314.158 405.206C314.482 405.326 314.839 405.315 315.155 405.177C323.079 401.585 330.742 397.464 338.238 393.09C345.735 388.716 353.084 384.089 360.289 379.264C367.494 374.438 374.618 369.492 381.601 364.355C388.612 359.257 395.483 353.972 402.295 348.615C415.859 337.83 429.064 326.614 441.909 314.966C454.716 303.302 467.283 291.34 479.018 278.581C479.247 278.324 479.367 277.989 479.354 277.645C479.34 277.302 479.194 276.977 478.946 276.739C478.697 276.5 478.367 276.368 478.023 276.369C477.679 276.369 477.349 276.503 477.101 276.743L477.094 276.746Z" fill="black"/>
<path d="M504.09 246.637L504.056 246.671C502.99 247.744 501.967 248.851 500.954 249.965C499.94 251.08 498.945 252.205 497.956 253.346C496.966 254.486 495.997 255.634 495.049 256.805L493.631 258.565C493.173 259.166 492.697 259.754 492.255 260.364L492.227 260.402C492.031 260.672 491.944 261.006 491.983 261.337C492.021 261.669 492.183 261.974 492.436 262.191C492.689 262.409 493.015 262.524 493.348 262.513C493.682 262.502 493.999 262.366 494.237 262.132C494.777 261.6 495.292 261.044 495.82 260.499L497.36 258.819C498.383 257.699 499.38 256.56 500.369 255.412C501.359 254.264 502.335 253.107 503.287 251.927C504.239 250.747 505.193 249.571 506.098 248.356C506.305 248.087 506.4 247.749 506.365 247.411C506.33 247.074 506.168 246.762 505.911 246.541C505.654 246.319 505.322 246.205 504.983 246.22C504.644 246.235 504.324 246.38 504.088 246.624L504.09 246.637Z" fill="black"/>
<path d="M475.3 322.203C471.501 325.621 467.716 329.05 463.895 332.442C460.074 335.834 456.254 339.222 452.407 342.58C444.708 349.291 436.886 355.858 428.941 362.279C421.01 368.71 412.963 375.004 404.761 381.084C396.577 387.191 388.246 393.092 379.842 398.892C379.565 399.094 379.376 399.395 379.316 399.732C379.255 400.07 379.328 400.418 379.518 400.704C379.708 400.989 380.002 401.19 380.337 401.264C380.672 401.338 381.022 401.28 381.315 401.102C385.636 398.334 389.91 395.496 394.137 392.586C398.349 389.655 402.537 386.699 406.668 383.652C414.941 377.586 423.056 371.304 431.056 364.885C439.057 358.465 446.863 351.809 454.576 345.053C462.289 338.298 469.844 331.35 477.126 324.128C477.368 323.883 477.506 323.553 477.51 323.208C477.514 322.863 477.384 322.53 477.147 322.279C476.91 322.029 476.585 321.88 476.24 321.865C475.895 321.849 475.558 321.969 475.3 322.198V322.203Z" fill="black"/>
<path d="M300.683 147.84C300.394 147.175 299.975 146.576 299.449 146.078C299.299 145.94 299.134 145.82 298.956 145.719C298.666 145.557 298.347 145.453 298.016 145.414C297.686 145.375 297.352 145.402 297.032 145.492C296.712 145.582 296.413 145.735 296.151 145.941C295.89 146.146 295.673 146.402 295.51 146.692C295.161 147.326 294.944 148.025 294.872 148.745C294.798 149.394 294.816 150.049 294.924 150.692C295.03 151.336 295.218 151.963 295.484 152.559C295.774 153.219 296.187 153.819 296.701 154.325C296.866 154.482 297.051 154.617 297.252 154.726C297.541 154.882 297.858 154.979 298.184 155.012C298.511 155.045 298.841 155.014 299.155 154.92C299.47 154.825 299.762 154.67 300.017 154.463C300.271 154.255 300.482 154 300.638 153.711C300.974 153.072 301.184 152.375 301.26 151.657C301.332 151.009 301.32 150.354 301.224 149.708C301.132 149.063 300.949 148.434 300.683 147.84Z" fill="black"/>
<path d="M316.471 144.493C316.183 143.829 315.763 143.229 315.237 142.731C315.087 142.593 314.922 142.473 314.744 142.372C314.454 142.21 314.135 142.106 313.805 142.067C313.475 142.028 313.14 142.055 312.82 142.145C312.5 142.235 312.201 142.388 311.94 142.594C311.679 142.799 311.461 143.055 311.298 143.345C310.95 143.98 310.732 144.678 310.66 145.398C310.586 146.047 310.604 146.702 310.712 147.345C310.818 147.989 311.006 148.616 311.272 149.212C311.562 149.873 311.975 150.472 312.489 150.978C312.654 151.138 312.839 151.275 313.04 151.387C313.329 151.542 313.646 151.64 313.972 151.673C314.299 151.706 314.629 151.675 314.943 151.58C315.258 151.486 315.551 151.331 315.805 151.123C316.059 150.916 316.271 150.66 316.426 150.371C316.762 149.732 316.973 149.036 317.048 148.318C317.12 147.669 317.108 147.014 317.012 146.369C316.921 145.721 316.738 145.09 316.471 144.493Z" fill="black"/>
<path d="M325.334 163.641C325.283 163.375 325.148 163.132 324.948 162.948C324.748 162.764 324.495 162.649 324.225 162.621C323.955 162.593 323.683 162.652 323.45 162.79C323.216 162.928 323.033 163.137 322.928 163.387L322.694 163.947C322.665 164.07 322.642 164.195 322.627 164.321C322.605 164.464 322.571 164.61 322.538 164.756C322.478 165.045 322.396 165.329 322.31 165.605C322.139 166.14 321.896 166.649 321.586 167.117C321.281 167.583 320.907 168 320.477 168.353C320.253 168.543 320.019 168.72 319.775 168.883C319.529 169.06 319.243 169.187 318.982 169.37L318.763 169.523C318.51 169.703 318.329 169.966 318.251 170.267C318.174 170.567 318.204 170.885 318.338 171.165C318.472 171.445 318.7 171.669 318.983 171.797C319.266 171.925 319.584 171.95 319.883 171.866C320.299 171.752 320.709 171.615 321.11 171.455C321.519 171.278 321.911 171.063 322.28 170.813C323.057 170.308 323.724 169.651 324.24 168.881C324.758 168.123 325.12 167.269 325.308 166.37L325.418 165.708C325.435 165.484 325.459 165.263 325.461 165.041C325.463 164.819 325.461 164.595 325.438 164.371C325.42 164.126 325.385 163.882 325.334 163.641Z" fill="black"/>
<path d="M317.57 136.425C316.822 135.828 315.939 135.424 314.998 135.247C314.1 135.076 313.178 135.067 312.277 135.219C311.445 135.354 310.634 135.593 309.863 135.933C309.135 136.245 308.445 136.643 307.81 137.116C307.47 137.366 307.23 137.728 307.13 138.138C307.031 138.548 307.079 138.98 307.265 139.358C307.452 139.736 307.766 140.036 308.151 140.207C308.537 140.377 308.971 140.406 309.376 140.289L309.421 140.276L311.239 139.767C311.792 139.618 312.353 139.501 312.919 139.416C313.413 139.346 313.913 139.318 314.412 139.334C314.886 139.352 315.359 139.41 315.823 139.507L316.096 139.561C316.486 139.638 316.89 139.582 317.245 139.403C317.6 139.224 317.885 138.932 318.055 138.573C318.225 138.214 318.271 137.808 318.184 137.42C318.098 137.032 317.884 136.684 317.578 136.431L317.57 136.425Z" fill="black"/>
<path d="M262.97 204.758C260.3 205.081 257.854 206.411 256.131 208.475C254.407 210.539 253.536 213.183 253.694 215.868C253.853 218.553 255.029 221.076 256.984 222.923C258.939 224.77 261.524 225.802 264.214 225.809C264.647 225.808 265.079 225.782 265.509 225.729C266.886 225.562 268.216 225.126 269.425 224.445C270.633 223.764 271.695 222.851 272.551 221.76C273.407 220.668 274.039 219.419 274.412 218.083C274.785 216.747 274.891 215.351 274.725 213.974C274.558 212.597 274.122 211.267 273.441 210.058C272.76 208.85 271.848 207.788 270.756 206.932C269.665 206.076 268.415 205.444 267.079 205.071C265.744 204.698 264.347 204.592 262.97 204.758ZM271.557 214.359C271.675 215.32 271.602 216.295 271.343 217.228C271.083 218.16 270.641 219.033 270.043 219.794C268.835 221.331 267.067 222.326 265.126 222.562C263.186 222.798 261.231 222.256 259.689 221.054C258.487 220.102 257.611 218.8 257.182 217.329C256.753 215.857 256.792 214.288 257.294 212.84C257.796 211.391 258.736 210.135 259.984 209.244C261.232 208.353 262.725 207.872 264.258 207.868C266.057 207.875 267.792 208.538 269.136 209.734C270.481 210.929 271.342 212.574 271.559 214.36L271.557 214.359Z" fill="black"/>
<path d="M131.04 166.507L152.755 183.512C154.423 184.808 156.534 185.396 158.631 185.149C159.67 185.027 160.675 184.701 161.587 184.188C162.499 183.675 163.3 182.987 163.944 182.162L181.098 160.268C181.194 160.349 181.285 160.427 181.386 160.502C182.172 161.144 182.954 161.788 183.745 162.424C184.712 163.201 185.674 163.981 186.635 164.756C189.062 166.716 191.57 168.745 194.057 170.712C198.244 174.048 201.441 176.583 204.437 178.926C208.342 181.985 211.904 184.753 215.286 187.346C211.339 189.253 207.88 192.039 205.177 195.49C195.38 207.997 197.585 226.136 210.086 235.932C215.773 240.382 222.924 242.534 230.122 241.962C237.321 241.39 244.042 238.136 248.956 232.844C249.252 233.109 249.557 233.36 249.859 233.591C253.941 236.818 258.995 238.569 264.199 238.558C269.053 238.565 273.788 237.057 277.745 234.245C281.701 231.432 284.681 227.455 286.269 222.868C287.857 218.28 287.973 213.312 286.603 208.655C285.232 203.999 282.442 199.886 278.622 196.89C278.32 196.652 278.001 196.418 277.676 196.189C281.631 190.153 283.175 182.853 282.003 175.734C280.831 168.614 277.029 162.194 271.348 157.745C258.841 147.948 240.703 150.147 230.907 162.648C228.19 166.112 226.309 170.156 225.408 174.464C222.076 171.797 218.521 168.988 214.616 165.932C211.63 163.578 208.4 161.078 204.163 157.814C201.656 155.869 199.089 153.92 196.603 152.027C195.62 151.28 194.634 150.529 193.644 149.774C186.838 144.6 179.693 139.27 172.409 133.941C166.559 129.676 158.814 124.076 150.756 118.608C149.473 117.739 147.907 117.388 146.376 117.628C144.845 117.867 143.461 118.679 142.505 119.899C141.549 121.119 141.091 122.656 141.224 124.201C141.357 125.745 142.071 127.181 143.222 128.22C144.62 129.474 146.08 130.775 147.76 132.252L129.692 155.307C128.387 156.971 127.795 159.086 128.048 161.186C128.301 163.286 129.377 165.2 131.04 166.507ZM132.194 157.284L151.2 133.041C151.451 132.72 151.569 132.315 151.532 131.909C151.494 131.503 151.304 131.127 150.998 130.857C148.841 128.966 147.05 127.383 145.361 125.858C144.819 125.359 144.484 124.674 144.424 123.94C144.364 123.206 144.582 122.475 145.036 121.895C145.489 121.314 146.145 120.925 146.872 120.806C147.599 120.687 148.345 120.846 148.96 121.251C156.972 126.691 164.69 132.276 170.526 136.526C177.794 141.839 184.92 147.151 191.707 152.32C192.69 153.067 193.678 153.823 194.665 154.573C197.146 156.455 199.705 158.404 202.21 160.343C206.444 163.6 209.658 166.096 212.645 168.444C217.39 172.157 221.605 175.506 225.54 178.672C225.763 178.851 226.031 178.966 226.314 179.007C226.598 179.047 226.887 179.01 227.151 178.9C227.416 178.791 227.646 178.612 227.817 178.383C227.989 178.154 228.096 177.883 228.127 177.598C228.642 172.864 230.472 168.368 233.408 164.62C242.122 153.505 258.255 151.553 269.371 160.257C274.628 164.373 278.069 170.38 278.96 176.998C279.85 183.615 278.119 190.318 274.137 195.677C274.005 195.856 273.912 196.06 273.863 196.277C273.815 196.494 273.812 196.718 273.855 196.936C273.898 197.154 273.986 197.361 274.113 197.543C274.241 197.725 274.404 197.878 274.594 197.994C277.038 199.463 279.142 201.435 280.767 203.779C282.391 206.123 283.499 208.785 284.018 211.589C284.536 214.393 284.453 217.276 283.773 220.046C283.094 222.815 281.834 225.409 280.077 227.655C278.452 229.742 276.429 231.486 274.126 232.785C271.822 234.085 269.284 234.915 266.657 235.226C265.839 235.324 265.015 235.373 264.191 235.376C261.544 235.375 258.923 234.849 256.48 233.827C254.038 232.806 251.823 231.309 249.964 229.425C249.807 229.267 249.618 229.144 249.411 229.063C249.203 228.982 248.981 228.946 248.759 228.957C248.537 228.967 248.319 229.024 248.12 229.124C247.921 229.224 247.745 229.365 247.604 229.537C243.354 234.691 237.259 237.982 230.618 238.706C223.976 239.431 217.315 237.532 212.053 233.416C200.934 224.702 198.987 208.572 207.691 197.452C210.616 193.717 214.526 190.872 218.981 189.239C219.25 189.142 219.487 188.973 219.668 188.751C219.848 188.529 219.965 188.262 220.005 187.979C220.047 187.697 220.012 187.409 219.904 187.145C219.797 186.881 219.621 186.65 219.395 186.476C215.395 183.421 211.144 180.13 206.405 176.413C203.418 174.082 200.221 171.56 196.045 168.215C193.564 166.255 191.061 164.229 188.638 162.275C187.677 161.498 186.71 160.718 185.743 159.944C184.962 159.311 184.186 158.674 183.406 158.036C182.89 157.61 182.375 157.19 181.854 156.772C181.571 156.539 181.217 156.412 180.85 156.41C180.792 156.41 180.729 156.41 180.664 156.421C180.454 156.445 180.251 156.51 180.066 156.613C179.882 156.717 179.72 156.856 179.59 157.022L161.437 180.186C161.052 180.683 160.571 181.098 160.024 181.407C159.477 181.716 158.873 181.914 158.249 181.987C156.989 182.132 155.723 181.779 154.721 181.003L133.019 163.992C132.021 163.21 131.374 162.063 131.22 160.805C131.067 159.546 131.419 158.277 132.199 157.278L132.194 157.284Z" fill="black"/>
<path d="M215.214 203.355C212.97 206.213 211.762 209.748 211.786 213.381C211.81 217.015 213.065 220.533 215.347 223.361C217.628 226.189 220.801 228.161 224.347 228.954C227.893 229.746 231.603 229.314 234.871 227.726C238.14 226.139 240.774 223.49 242.343 220.213C243.912 216.936 244.324 213.223 243.512 209.681C242.699 206.14 240.71 202.978 237.869 200.713C235.028 198.447 231.503 197.212 227.87 197.208C225.43 197.196 223.021 197.744 220.827 198.81C218.633 199.876 216.713 201.43 215.214 203.355ZM227.87 200.396C230.741 200.388 233.531 201.35 235.786 203.127C238.188 205.004 239.846 207.671 240.466 210.656C241.086 213.64 240.628 216.747 239.173 219.425C237.718 222.104 235.36 224.179 232.519 225.282C229.677 226.386 226.537 226.446 223.655 225.452C220.774 224.458 218.339 222.474 216.782 219.854C215.225 217.233 214.649 214.146 215.154 211.14C215.66 208.134 217.215 205.405 219.543 203.438C221.871 201.471 224.822 200.393 227.87 200.396Z" fill="black"/>
<path d="M243.678 193.06C246.492 195.274 249.969 196.477 253.549 196.476C254.204 196.476 254.859 196.437 255.509 196.358C259.197 195.911 262.615 194.2 265.181 191.515C267.748 188.83 269.304 185.338 269.585 181.635C269.865 177.931 268.853 174.245 266.72 171.204C264.587 168.163 261.466 165.956 257.888 164.958C254.311 163.961 250.498 164.235 247.099 165.733C243.701 167.232 240.927 169.863 239.251 173.178C237.575 176.492 237.1 180.285 237.908 183.911C238.715 187.536 240.754 190.77 243.678 193.06ZM243.454 172.489C244.493 171.156 245.786 170.041 247.258 169.211C248.729 168.38 250.352 167.849 252.03 167.649C252.553 167.586 253.08 167.554 253.607 167.554C255.657 167.556 257.677 168.048 259.498 168.989C261.32 169.929 262.89 171.292 264.078 172.962C265.266 174.632 266.038 176.563 266.33 178.592C266.621 180.621 266.424 182.69 265.753 184.627C265.083 186.565 263.96 188.314 262.477 189.729C260.994 191.144 259.194 192.185 257.228 192.764C255.261 193.343 253.185 193.444 251.172 193.058C249.158 192.672 247.266 191.811 245.653 190.546C242.969 188.439 241.23 185.354 240.818 181.967C240.406 178.58 241.355 175.168 243.456 172.48L243.454 172.489Z" fill="black"/>
<path d="M109.557 384.475C109.796 384.726 110.108 384.893 110.449 384.953C111.741 385.786 113.275 386.163 114.807 386.024C116.338 385.886 117.779 385.239 118.901 384.188L202.72 305.745C204.162 304.394 205.151 302.631 205.552 300.697C205.952 298.762 205.746 296.751 204.96 294.939L166.844 207.515C166.403 206.502 165.724 205.609 164.866 204.912C164.007 204.215 162.994 203.734 161.911 203.51C160.828 203.286 159.707 203.326 158.643 203.625C157.578 203.925 156.601 204.475 155.794 205.231L139.005 220.926C133.384 212.574 126.791 207.501 119.862 206.226C114.593 205.259 109.359 206.599 104.716 210.093C104.699 210.105 104.69 210.119 104.673 210.131C104.657 210.142 104.642 210.151 104.63 210.162L45.2125 262.056C45.1417 262.121 45.0761 262.193 45.0165 262.269C44.5099 262.672 44.0275 263.104 43.5717 263.564C32.3997 274.902 39.6144 292.805 41.6696 297.248L40.3629 298.471C38.8171 299.911 37.9059 301.906 37.8293 304.018C37.7526 306.129 38.5168 308.185 39.9541 309.734L55.7275 326.672C55.7387 326.689 55.7387 326.704 55.748 326.721C62.4157 340.799 59.584 354.054 56.0299 362.699C55.7661 363.34 55.7306 364.052 55.9294 364.716C56.1281 365.381 56.549 365.956 57.1216 366.347C57.6942 366.738 58.3836 366.92 59.0745 366.863C59.7655 366.806 60.4158 366.514 60.9168 366.035L77.6365 350.187L109.557 384.475ZM59.2499 363.223C59.2598 363.211 59.2669 363.196 59.2704 363.18C59.2704 363.18 59.2816 363.18 59.2909 363.192L59.2499 363.223ZM139.638 224.696L139.808 224.538L157.967 207.564C158.401 207.158 158.927 206.861 159.5 206.7C160.073 206.539 160.676 206.518 161.259 206.638C161.842 206.758 162.388 207.016 162.85 207.391C163.313 207.765 163.679 208.245 163.918 208.79L202.031 296.218C202.554 297.426 202.691 298.766 202.424 300.056C202.157 301.345 201.498 302.52 200.538 303.421L116.725 381.862C116.29 382.27 115.764 382.567 115.191 382.729C114.618 382.891 114.014 382.912 113.431 382.792C112.848 382.672 112.302 382.413 111.839 382.038C111.377 381.663 111.011 381.182 110.774 380.636L79.38 308.62C78.8571 307.411 78.7199 306.071 78.9872 304.782C79.2545 303.492 79.9131 302.317 80.8733 301.416L120.831 264.019C124.226 260.836 126.484 256.628 127.26 252.039L129.381 239.374C130.043 235.472 131.963 231.893 134.848 229.184L139.638 224.696ZM56 256.866L106.673 212.613C110.626 209.643 114.871 208.55 119.286 209.362C123.812 210.196 128.233 212.974 132.319 217.495C133.338 218.971 134.135 220.603 134.114 222.41C134.083 225.183 132.031 227.42 130.29 229.365C130.149 229.52 130.046 229.705 129.987 229.906C128.064 232.557 126.78 235.617 126.237 238.847L124.113 251.513C123.454 255.41 121.538 258.985 118.657 261.692L92.5082 286.16C91.7721 286.714 90.9324 287.115 90.0387 287.34C87.3133 287.956 85.8424 286.007 84.4872 284.051C78.3832 270.194 68.3144 261.901 59.8472 259.616C58.8628 259.348 57.8593 259.157 56.8456 259.043C56.4835 258.916 55.5389 258.714 55.3205 258.373C55.1021 258.031 55.5408 257.451 56 256.866ZM42.2763 307.572C41.8478 307.113 41.5143 306.574 41.2947 305.985C41.075 305.397 40.9737 304.771 40.9964 304.143C41.0191 303.515 41.1655 302.898 41.427 302.327C41.6886 301.756 42.0603 301.242 42.5208 300.815L59.1173 285.35C59.3657 285.243 59.5741 285.061 59.7128 284.829C59.7333 284.803 59.7501 284.771 59.7707 284.743L61.9752 282.69C63.2987 281.547 64.7061 280.431 66.22 279.561C67.883 278.957 69.6584 278.724 71.4209 278.881C73.1835 279.037 74.8904 279.577 76.4213 280.465C82.3778 283.892 83.0312 290.059 80.9163 295.654C79.9493 297.369 78.6539 298.926 77.4144 300.414C77.2994 300.552 77.2193 300.716 77.181 300.892C76.3289 302.217 75.8162 303.732 75.6883 305.302C75.5603 306.873 75.8211 308.451 76.4475 309.896L96.6672 356.283C96.6607 356.469 96.7025 356.654 96.7885 356.819C97.6061 358.402 99.3178 362.914 95.6685 362.333C94.2872 362.115 92.8256 361.248 91.4722 360.394L42.2763 307.572Z" fill="black"/>
<path d="M134.857 309.826C136.388 310.437 138.036 310.697 139.681 310.585C139.868 310.575 140.052 310.635 140.196 310.754C140.341 310.873 140.435 311.042 140.461 311.227L142.018 321.705C142.111 322.352 142.381 322.961 142.797 323.465C143.213 323.969 143.76 324.349 144.377 324.563C144.757 324.693 145.156 324.759 145.557 324.759C146.466 324.76 147.341 324.412 148.001 323.786L162.818 309.867C163.23 309.48 163.544 309.001 163.735 308.47C163.926 307.939 163.988 307.369 163.917 306.809C163.846 306.249 163.644 305.714 163.326 305.247C163.009 304.78 162.585 304.395 162.09 304.123L153.255 299.27C153.163 299.219 153.089 299.138 153.047 299.041C153.005 298.945 152.996 298.836 153.022 298.734L153.192 298.06C155.014 290.78 152.061 283.801 146.173 281.447C141.902 279.746 137.082 280.937 133.37 284.12C133.272 284.189 133.182 284.267 133.099 284.353C131.115 286.157 129.573 288.392 128.589 290.886C125.468 298.706 128.279 307.205 134.857 309.826ZM140.898 285.701C140.999 284.207 142.619 284.138 143.799 284.054C144.203 284.145 144.6 284.27 144.984 284.428C149.378 286.175 151.517 291.59 150.095 297.295L149.925 297.965C149.728 298.751 149.797 299.58 150.121 300.323C150.445 301.066 151.005 301.681 151.715 302.071L158.403 305.743C159.307 306.662 160.013 307.89 158.663 308.592C157.457 309.219 155.742 308.56 154.37 308.05L144.122 302.344C144.029 302.293 143.957 302.212 143.914 302.115C143.872 302.019 143.863 301.911 143.888 301.808L144.058 301.134C145.333 296.044 144.265 291.099 141.497 287.784C141.142 287.129 140.855 286.427 140.898 285.699V285.701ZM140.881 293.229C140.87 293.218 140.864 293.208 140.855 293.197C140.846 293.186 140.855 293.145 140.844 293.117C140.855 293.152 140.87 293.19 140.881 293.227V293.229Z" fill="black"/>
<path d="M85.163 250.249C87.1902 248.621 89.18 246.951 91.1643 245.273C93.1486 243.595 95.103 241.885 97.0742 240.193C99.0454 238.502 100.974 236.761 102.906 235.025L105.791 232.411C106.74 231.523 107.701 230.649 108.638 229.748C108.889 229.512 109.04 229.188 109.057 228.844C109.074 228.5 108.957 228.163 108.731 227.904C108.504 227.644 108.186 227.483 107.842 227.453C107.499 227.424 107.158 227.529 106.891 227.746C105.872 228.555 104.877 229.389 103.869 230.21L100.882 232.717C98.9016 234.397 96.9416 236.104 94.976 237.802C93.0104 239.501 91.0728 241.231 89.1483 242.977C87.2238 244.722 85.2974 246.465 83.412 248.256C83.1607 248.491 83.0106 248.815 82.9934 249.159C82.9761 249.503 83.0931 249.84 83.3196 250.1C83.5461 250.359 83.8645 250.52 84.2077 250.55C84.5509 250.579 84.892 250.474 85.1592 250.257L85.163 250.249Z" fill="black"/>
<path d="M99.9171 252.493C97.9888 254.233 96.0662 255.982 94.1808 257.772C93.9295 258.007 93.7794 258.331 93.7622 258.675C93.7449 259.019 93.8619 259.356 94.0884 259.616C94.3149 259.875 94.6333 260.037 94.9765 260.066C95.3197 260.095 95.6608 259.99 95.928 259.773C97.9552 258.145 99.9451 256.474 101.929 254.796C103.914 253.118 105.868 251.408 107.839 249.717C109.81 248.026 111.739 246.284 113.671 244.548L116.557 241.935C117.505 241.046 118.466 240.173 119.403 239.271C119.655 239.036 119.805 238.712 119.822 238.368C119.839 238.024 119.722 237.687 119.496 237.427C119.269 237.168 118.951 237.006 118.608 236.977C118.264 236.948 117.923 237.053 117.656 237.27C116.637 238.078 115.642 238.913 114.634 239.734L111.647 242.241C109.667 243.921 107.707 245.627 105.741 247.326C103.775 249.025 101.842 250.749 99.9171 252.493Z" fill="black"/>
<path d="M239.869 450.292C242.883 437.168 208.267 418.02 162.553 407.525C116.839 397.03 77.3376 399.162 74.3245 412.286C71.3113 425.411 105.927 444.558 151.641 455.054C197.355 465.549 236.856 463.417 239.869 450.292Z" fill="black"/>
<path d="M193.74 476.157C181.556 475.41 169.437 473.661 157.45 471.303C154.463 470.695 151.461 470.083 148.478 469.42C145.495 468.757 142.526 468.037 139.559 467.299C133.629 465.819 127.755 464.126 121.919 462.295C121.59 462.2 121.237 462.236 120.934 462.395C120.63 462.554 120.4 462.825 120.291 463.15C120.182 463.475 120.203 463.829 120.349 464.139C120.495 464.449 120.756 464.69 121.076 464.813C126.894 466.894 132.813 468.677 138.77 470.312C144.726 471.947 150.75 473.346 156.813 474.54C159.848 475.125 162.889 475.673 165.941 476.162C168.993 476.651 172.058 477.058 175.127 477.43C181.266 478.162 187.447 478.641 193.629 478.806C193.975 478.811 194.309 478.681 194.561 478.444C194.813 478.207 194.962 477.881 194.977 477.536C194.993 477.19 194.873 476.852 194.643 476.594C194.413 476.335 194.092 476.177 193.747 476.151L193.74 476.157Z" fill="black"/>
<path d="M109.282 457.662C107.666 456.893 106.038 456.157 104.429 455.407L99.5848 453.145C97.972 452.398 96.3742 451.608 94.7726 450.834L89.9939 448.459C89.6907 448.311 89.3425 448.283 89.0196 448.382C88.6967 448.48 88.4234 448.698 88.2549 448.99C88.0865 449.283 88.0355 449.629 88.1123 449.957C88.1891 450.286 88.3879 450.573 88.6686 450.761C89.4283 451.265 90.2086 451.733 90.987 452.208C91.7654 452.682 92.5662 453.115 93.3614 453.553C94.9536 454.433 96.5814 455.245 98.2147 456.025C99.848 456.805 101.517 457.537 103.199 458.216C104.881 458.896 106.572 459.551 108.291 460.126C108.612 460.231 108.961 460.209 109.267 460.067C109.572 459.924 109.813 459.67 109.939 459.357C110.065 459.044 110.067 458.695 109.945 458.38C109.823 458.065 109.586 457.809 109.282 457.662Z" fill="black"/>
<path d="M160.614 143.371L162.363 144.864C163.536 145.854 164.725 146.824 165.928 147.776C167.13 148.728 168.334 149.679 169.566 150.597C170.798 151.515 172.021 152.439 173.283 153.319C173.56 153.515 173.902 153.599 174.238 153.551C174.575 153.504 174.881 153.33 175.093 153.064C175.305 152.799 175.408 152.462 175.38 152.124C175.352 151.785 175.195 151.47 174.942 151.243C173.807 150.205 172.642 149.206 171.468 148.217C170.294 147.228 169.109 146.253 167.922 145.29C166.734 144.327 165.519 143.38 164.297 142.455L162.45 141.079C161.825 140.633 161.205 140.179 160.567 139.748C160.289 139.559 159.951 139.483 159.619 139.533C159.287 139.583 158.987 139.756 158.777 140.018C158.568 140.28 158.465 140.612 158.489 140.947C158.513 141.281 158.662 141.594 158.908 141.824C159.46 142.356 160.041 142.858 160.614 143.371Z" fill="black"/>
<path d="M303.744 449.665C302.672 449.568 301.601 449.503 300.531 449.458C299.724 449.422 298.961 449.079 298.398 448.5C297.834 447.921 297.513 447.149 297.5 446.341C297.492 445.936 297.482 445.532 297.47 445.127C297.421 443.171 297.362 441.207 297.239 439.257C297.228 439.079 297.181 438.906 297.102 438.747C297.023 438.588 296.913 438.447 296.779 438.331C296.644 438.215 296.488 438.127 296.319 438.073C296.15 438.018 295.972 437.998 295.796 438.013C295.47 438.05 295.169 438.202 294.946 438.442C294.723 438.682 294.592 438.993 294.579 439.32C294.457 441.256 294.392 443.193 294.351 445.129C294.34 445.534 294.33 445.938 294.321 446.342C294.307 447.153 293.984 447.927 293.418 448.506C292.852 449.086 292.086 449.427 291.276 449.46C290.192 449.505 289.107 449.574 288.023 449.673C287.674 449.705 287.352 449.873 287.126 450.141C286.9 450.409 286.788 450.755 286.815 451.104C286.848 451.425 286.992 451.724 287.222 451.949C287.453 452.174 287.756 452.31 288.077 452.334C289.147 452.432 290.216 452.499 291.286 452.544C292.092 452.579 292.854 452.921 293.417 453.499C293.98 454.076 294.302 454.847 294.317 455.653C294.325 456.057 294.334 456.459 294.345 456.861L294.431 459.797C294.483 460.776 294.513 461.754 294.584 462.734C294.597 462.909 294.644 463.08 294.723 463.237C294.803 463.394 294.912 463.534 295.045 463.649C295.179 463.763 295.334 463.85 295.501 463.904C295.668 463.959 295.844 463.98 296.02 463.966C296.343 463.932 296.643 463.785 296.868 463.55C297.092 463.315 297.226 463.008 297.244 462.683C297.313 461.722 297.341 460.761 297.393 459.799L297.479 456.863C297.491 456.46 297.5 456.056 297.507 455.652C297.52 454.841 297.843 454.066 298.409 453.485C298.975 452.905 299.742 452.563 300.552 452.53C301.635 452.486 302.717 452.418 303.8 452.32C304.149 452.288 304.472 452.12 304.698 451.852C304.925 451.584 305.036 451.238 305.009 450.888C304.975 450.568 304.83 450.27 304.598 450.047C304.367 449.823 304.065 449.688 303.744 449.665Z" fill="black"/>
<path d="M476.153 402.651C474.94 402.584 473.727 402.556 472.513 402.506L468.814 402.42C467.942 402.401 467.066 402.389 466.183 402.382C465.345 402.375 464.544 402.038 463.953 401.444C463.362 400.85 463.028 400.047 463.025 399.209C463.025 397.126 463.004 395.043 462.973 392.959C462.924 389.286 462.864 385.614 462.741 381.946C462.735 381.765 462.691 381.587 462.613 381.423C462.536 381.26 462.426 381.113 462.289 380.994C462.153 380.874 461.994 380.783 461.822 380.727C461.65 380.671 461.468 380.651 461.287 380.667C460.957 380.71 460.653 380.87 460.431 381.119C460.21 381.367 460.085 381.688 460.081 382.021C459.96 385.668 459.895 389.318 459.853 392.965C459.822 395.048 459.811 397.131 459.801 399.215C459.798 400.053 459.464 400.856 458.873 401.45C458.281 402.044 457.479 402.381 456.641 402.388C455.77 402.397 454.893 402.409 454.011 402.423L450.311 402.509C449.077 402.56 447.845 402.59 446.611 402.661C446.434 402.671 446.26 402.716 446.1 402.795C445.94 402.873 445.798 402.983 445.681 403.118C445.564 403.252 445.476 403.409 445.421 403.578C445.366 403.747 445.345 403.926 445.361 404.103C445.397 404.429 445.549 404.73 445.789 404.954C446.028 405.177 446.34 405.307 446.667 405.321C447.881 405.388 449.094 405.418 450.307 405.468L454.007 405.554C454.878 405.571 455.754 405.583 456.635 405.589C457.473 405.597 458.275 405.934 458.866 406.528C459.457 407.122 459.79 407.925 459.794 408.763C459.802 410.845 459.818 412.926 459.84 415.007L459.926 420.515C459.979 422.352 460.008 424.189 460.079 426.024C460.087 426.204 460.131 426.381 460.208 426.544C460.286 426.707 460.396 426.852 460.532 426.971C460.667 427.09 460.826 427.18 460.997 427.236C461.169 427.292 461.35 427.313 461.53 427.297C461.859 427.256 462.162 427.097 462.384 426.85C462.606 426.603 462.732 426.285 462.738 425.953C462.807 424.14 462.836 422.328 462.887 420.515L462.973 415.007C462.996 412.925 463.012 410.843 463.019 408.761C463.023 407.923 463.356 407.12 463.947 406.526C464.538 405.932 465.34 405.595 466.178 405.587C467.049 405.579 467.925 405.566 468.806 405.55L472.506 405.464C473.74 405.414 474.972 405.384 476.206 405.315C476.384 405.305 476.558 405.26 476.718 405.181C476.878 405.103 477.02 404.993 477.137 404.858C477.254 404.724 477.343 404.567 477.398 404.398C477.453 404.228 477.473 404.05 477.458 403.872C477.422 403.546 477.271 403.244 477.032 403.02C476.792 402.796 476.481 402.665 476.153 402.651Z" fill="black"/>
<path d="M68.305 169.445C69.4922 169.512 70.6813 169.542 71.8685 169.592L75.4898 169.678C76.3149 169.697 77.1406 169.71 77.9669 169.719C78.8042 169.728 79.6046 170.065 80.195 170.659C80.7853 171.253 81.1182 172.055 81.1216 172.893C81.1303 174.895 81.1452 176.897 81.1664 178.899L81.2522 184.292C81.3045 186.09 81.3344 187.887 81.4053 189.685C81.4129 189.865 81.457 190.042 81.5349 190.205C81.6128 190.367 81.7228 190.512 81.8584 190.631C81.994 190.75 82.1523 190.84 82.3237 190.896C82.4952 190.952 82.6761 190.972 82.8557 190.956C83.1854 190.915 83.4892 190.757 83.7114 190.51C83.9336 190.263 84.0593 189.944 84.0653 189.612C84.1344 187.839 84.1642 186.066 84.2146 184.292L84.3005 178.899C84.3241 176.897 84.3391 174.894 84.3453 172.891C84.3487 172.054 84.6813 171.252 85.2713 170.658C85.8612 170.064 86.6611 169.726 87.4981 169.717C88.3232 169.707 89.1489 169.694 89.9752 169.676L93.5965 169.59C94.8042 169.54 96.0101 169.51 97.2178 169.441C97.3956 169.431 97.5695 169.385 97.7294 169.307C97.8892 169.228 98.0316 169.119 98.1482 168.984C98.2648 168.849 98.3533 168.693 98.4083 168.524C98.4633 168.354 98.4838 168.176 98.4685 167.998C98.4318 167.673 98.2799 167.371 98.0403 167.148C97.8006 166.925 97.4891 166.795 97.1618 166.781C95.9746 166.716 94.7874 166.686 93.5984 166.635L89.977 166.55C89.1507 166.531 88.3244 166.517 87.4981 166.509C86.6608 166.5 85.8604 166.163 85.2701 165.569C84.6797 164.975 84.3468 164.173 84.3434 163.335C84.3434 161.33 84.3229 159.327 84.293 157.323C84.2445 153.727 84.1848 150.132 84.0616 146.539C84.055 146.358 84.0115 146.18 83.934 146.017C83.8564 145.853 83.7463 145.707 83.6104 145.587C83.4745 145.468 83.3156 145.377 83.1435 145.321C82.9714 145.264 82.7896 145.244 82.6093 145.26C82.2792 145.303 81.9755 145.462 81.754 145.711C81.5324 145.959 81.4079 146.279 81.4034 146.612C81.2821 150.183 81.2168 153.752 81.1757 157.323C81.1458 159.326 81.1328 161.33 81.1253 163.333C81.1219 164.171 80.789 164.973 80.1987 165.567C79.6083 166.161 78.808 166.498 77.9706 166.507C77.1443 166.515 76.3186 166.529 75.4936 166.548L71.8722 166.634C70.6645 166.684 69.4586 166.714 68.2509 166.785C68.0733 166.795 67.8996 166.841 67.74 166.92C67.5804 166.998 67.4382 167.108 67.3218 167.243C67.2053 167.377 67.1171 167.534 67.0622 167.703C67.0073 167.872 66.9868 168.05 67.0021 168.228C67.0387 168.553 67.1901 168.854 67.4289 169.077C67.6678 169.3 67.9785 169.43 68.305 169.445Z" fill="black"/>
<path d="M388.409 118.634C389.329 118.701 390.249 118.731 391.169 118.782L393.979 118.867L394.873 118.89C395.704 118.907 396.496 119.248 397.079 119.841C397.662 120.434 397.991 121.232 397.994 122.063C398.003 123.269 398.016 124.474 398.033 125.679L398.119 129.862C398.171 131.256 398.201 132.651 398.272 134.045C398.282 134.224 398.327 134.399 398.405 134.559C398.484 134.72 398.594 134.863 398.729 134.981C398.864 135.098 399.021 135.187 399.191 135.243C399.361 135.298 399.54 135.319 399.719 135.303C400.046 135.264 400.348 135.108 400.571 134.865C400.793 134.622 400.921 134.308 400.932 133.978C401.001 132.606 401.031 131.234 401.081 129.871L401.167 125.688C401.186 124.482 401.199 123.276 401.206 122.071C401.21 121.239 401.538 120.442 402.12 119.849C402.703 119.256 403.494 118.915 404.326 118.897L405.22 118.875L408.029 118.789C408.962 118.739 409.896 118.709 410.838 118.64C411.014 118.627 411.185 118.579 411.341 118.5C411.498 118.421 411.638 118.311 411.752 118.178C411.866 118.044 411.953 117.89 412.007 117.723C412.062 117.556 412.083 117.379 412.069 117.204C412.035 116.881 411.888 116.581 411.653 116.357C411.419 116.132 411.112 115.999 410.788 115.98C409.868 115.914 408.947 115.884 408.027 115.834L405.218 115.748L404.32 115.726C403.49 115.709 402.7 115.368 402.117 114.777C401.535 114.185 401.207 113.39 401.203 112.56C401.203 111.352 401.182 110.144 401.158 108.935C401.109 106.146 401.05 103.357 400.926 100.567C400.918 100.387 400.873 100.211 400.795 100.05C400.717 99.888 400.607 99.7438 400.471 99.6256C400.336 99.5074 400.178 99.4178 400.008 99.362C399.837 99.3062 399.657 99.2855 399.478 99.301C399.149 99.3421 398.846 99.4998 398.624 99.7455C398.402 99.9912 398.276 100.308 398.268 100.639C398.147 103.404 398.082 106.17 398.041 108.935C398.016 110.143 398.005 111.35 397.996 112.558C397.99 113.387 397.66 114.181 397.078 114.771C396.495 115.361 395.705 115.7 394.876 115.716L393.981 115.739L391.171 115.825C390.238 115.875 389.305 115.905 388.362 115.976C388.187 115.989 388.016 116.036 387.859 116.116C387.702 116.195 387.563 116.304 387.448 116.438C387.334 116.571 387.247 116.726 387.193 116.893C387.138 117.06 387.118 117.236 387.132 117.411C387.166 117.733 387.312 118.033 387.546 118.257C387.78 118.48 388.085 118.614 388.409 118.634Z" fill="black"/>
<path d="M216.907 107.682C218.172 107.789 219.44 107.86 220.705 107.904C221.517 107.937 222.285 108.279 222.852 108.861C223.419 109.443 223.741 110.221 223.752 111.033C223.76 111.582 223.771 112.131 223.783 112.679L223.869 115.853C223.922 116.907 223.951 117.962 224.022 119.026C224.034 119.202 224.081 119.374 224.16 119.532C224.24 119.69 224.349 119.831 224.483 119.946C224.617 120.061 224.773 120.148 224.94 120.203C225.108 120.258 225.286 120.278 225.462 120.264C225.785 120.229 226.086 120.079 226.31 119.843C226.534 119.606 226.666 119.297 226.682 118.972C226.751 117.936 226.779 116.898 226.832 115.862L226.918 112.689C226.931 112.139 226.942 111.589 226.949 111.039C226.956 110.222 227.277 109.44 227.845 108.854C228.414 108.269 229.186 107.924 230.001 107.893C231.282 107.848 232.564 107.778 233.845 107.669C234.196 107.639 234.521 107.471 234.749 107.203C234.977 106.934 235.09 106.585 235.062 106.234C235.028 105.912 234.882 105.613 234.649 105.388C234.416 105.164 234.112 105.029 233.789 105.007C232.521 104.901 231.254 104.832 229.988 104.787C229.173 104.755 228.401 104.411 227.833 103.825C227.265 103.24 226.945 102.458 226.938 101.642C226.929 101.098 226.918 100.554 226.903 100.01C226.854 97.901 226.794 95.7917 226.671 93.6823C226.661 93.5046 226.615 93.3307 226.536 93.1709C226.458 93.0112 226.348 92.8689 226.213 92.7525C226.078 92.636 225.921 92.5478 225.752 92.493C225.583 92.4382 225.404 92.418 225.226 92.4335C224.901 92.471 224.601 92.6232 224.378 92.8627C224.155 93.1023 224.025 93.4134 224.011 93.7402C223.89 95.829 223.825 97.9178 223.783 100.005C223.769 100.549 223.757 101.092 223.748 101.634C223.738 102.451 223.415 103.232 222.845 103.817C222.275 104.402 221.503 104.746 220.687 104.778C219.404 104.823 218.122 104.894 216.839 105.004C216.489 105.034 216.164 105.202 215.937 105.47C215.709 105.739 215.597 106.086 215.624 106.437C215.654 106.764 215.8 107.069 216.035 107.297C216.27 107.526 216.579 107.662 216.907 107.682Z" fill="black"/>
<path d="M204.869 364.353C203.948 364.287 203.028 364.258 202.108 364.207L199.298 364.121L198.401 364.099C197.572 364.082 196.782 363.743 196.199 363.153C195.617 362.563 195.287 361.769 195.281 360.94C195.281 359.733 195.261 358.525 195.237 357.315C195.188 354.527 195.128 351.738 195.005 348.947C194.996 348.768 194.952 348.592 194.874 348.43C194.795 348.269 194.685 348.124 194.55 348.006C194.415 347.888 194.257 347.798 194.086 347.743C193.916 347.687 193.735 347.666 193.557 347.682C193.228 347.723 192.925 347.88 192.703 348.126C192.481 348.372 192.355 348.689 192.347 349.02C192.226 351.784 192.16 354.551 192.119 357.315C192.095 358.523 192.084 359.731 192.074 360.939C192.068 361.768 191.739 362.562 191.156 363.151C190.574 363.741 189.784 364.081 188.955 364.097L188.059 364.119L185.25 364.205C184.317 364.256 183.383 364.286 182.441 364.356C182.265 364.369 182.094 364.417 181.938 364.496C181.781 364.575 181.641 364.685 181.527 364.818C181.413 364.952 181.326 365.106 181.271 365.274C181.217 365.441 181.196 365.617 181.21 365.792C181.244 366.114 181.391 366.415 181.625 366.639C181.859 366.863 182.165 366.997 182.489 367.017C183.409 367.084 184.33 367.114 185.25 367.164L188.059 367.25L188.953 367.272C189.785 367.289 190.577 367.631 191.16 368.224C191.743 368.817 192.071 369.614 192.074 370.446C192.083 371.651 192.096 372.857 192.114 374.061L192.199 378.245C192.252 379.639 192.282 381.033 192.353 382.428C192.362 382.606 192.408 382.781 192.486 382.942C192.564 383.103 192.674 383.246 192.809 383.363C192.944 383.481 193.102 383.57 193.272 383.625C193.442 383.68 193.621 383.701 193.799 383.686C194.126 383.646 194.429 383.491 194.651 383.248C194.874 383.005 195.002 382.69 195.013 382.361C195.082 380.989 195.111 379.617 195.162 378.254L195.248 374.071C195.266 372.865 195.279 371.659 195.287 370.453C195.29 369.622 195.618 368.825 196.201 368.232C196.784 367.639 197.575 367.297 198.406 367.28L199.3 367.257L202.11 367.171C203.043 367.121 203.976 367.091 204.919 367.022C205.094 367.009 205.265 366.962 205.422 366.882C205.579 366.803 205.718 366.694 205.833 366.56C205.947 366.427 206.034 366.272 206.088 366.105C206.142 365.938 206.163 365.762 206.149 365.587C206.118 365.262 205.971 364.96 205.737 364.733C205.502 364.507 205.194 364.372 204.869 364.353Z" fill="black"/>
<path d="M512.324 311.408C515.264 311.408 517.647 309.025 517.647 306.085C517.647 303.145 515.264 300.761 512.324 300.761C509.383 300.761 507 303.145 507 306.085C507 309.025 509.383 311.408 512.324 311.408Z" fill="black"/>
<path d="M183.407 195.194C186.348 195.194 188.731 192.81 188.731 189.87C188.731 186.93 186.348 184.546 183.407 184.546C180.467 184.546 178.084 186.93 178.084 189.87C178.084 192.81 180.467 195.194 183.407 195.194Z" fill="black"/>
<path d="M52.5112 397.215C55.4515 397.215 57.835 394.832 57.835 391.892C57.835 388.952 55.4515 386.568 52.5112 386.568C49.571 386.568 47.1875 388.952 47.1875 391.892C47.1875 394.832 49.571 397.215 52.5112 397.215Z" fill="black"/>
<path d="M218.6 337.045C221.54 337.045 223.923 334.662 223.923 331.722C223.923 328.781 221.54 326.398 218.6 326.398C215.66 326.398 213.276 328.781 213.276 331.722C213.276 334.662 215.66 337.045 218.6 337.045Z" fill="black"/>
<path d="M451.097 109.577C454.037 109.577 456.421 107.194 456.421 104.253C456.421 101.313 454.037 98.9296 451.097 98.9296C448.157 98.9296 445.773 101.313 445.773 104.253C445.773 107.194 448.157 109.577 451.097 109.577Z" fill="black"/>
<path d="M108.786 107.595C111.726 107.595 114.109 105.211 114.109 102.271C114.109 99.3307 111.726 96.9472 108.786 96.9472C105.845 96.9472 103.462 99.3307 103.462 102.271C103.462 105.211 105.845 107.595 108.786 107.595Z" fill="black"/>
<path d="M45.8882 216.442C48.8284 216.442 51.2119 214.058 51.2119 211.118C51.2119 208.178 48.8284 205.794 45.8882 205.794C42.948 205.794 40.5645 208.178 40.5645 211.118C40.5645 214.058 42.948 216.442 45.8882 216.442Z" fill="black"/>
</svg>
