<svg width="20" height="20" viewBox="0 0 20 20" fill="none" xmlns="http://www.w3.org/2000/svg">
<path d="M18 18.0001V12.1401C18 9.26012 17.38 7.06012 14.02 7.06012C12.4 7.06012 11.32 7.94012 10.88 8.78012H10.84V7.32012H7.66V18.0001H10.98V12.7001C10.98 11.3001 11.24 9.96012 12.96 9.96012C14.66 9.96012 14.68 11.5401 14.68 12.7801V17.9801H18V18.0001Z" fill="white"/>
<path d="M2.26001 7.32013H5.58001V18.0001H2.26001V7.32013Z" fill="white"/>
<path d="M3.92 2.00008C2.86 2.00008 2 2.86008 2 3.92008C2 4.98008 2.86 5.86008 3.92 5.86008C4.98 5.86008 5.84 4.98008 5.84 3.92008C5.84 2.86008 4.98 2.00008 3.92 2.00008Z" fill="white"/>
</svg>
