<svg width="558" height="558" viewBox="0 0 558 558" fill="none" xmlns="http://www.w3.org/2000/svg">
<path d="M352.729 240.71C349.95 236.516 346.658 233.032 343.209 230.634L343.159 230.599L343.097 230.61C326.878 233.419 311.92 240.998 299.843 252.534L299.797 252.579V252.644C299.809 253.178 299.868 253.709 299.973 254.232C302.358 261.436 308.885 286.968 292.738 313.133C292.589 313.373 292.381 313.571 292.135 313.71C291.888 313.848 291.611 313.921 291.328 313.923C291.266 313.922 291.204 313.918 291.142 313.91C287.666 313.493 284.216 312.886 280.806 312.093L280.458 312.041C279.608 311.876 278.71 311.669 277.808 311.457L277.456 311.325L277.103 311.191L277.062 311.182C273.303 310.213 269.566 309.05 265.956 307.726C249.588 301.72 236.858 292.604 229.139 281.353C228.442 280.544 227.618 279.791 226.31 279.751C225.092 279.718 223.76 280.025 222.577 280.293C214.986 282.415 207.658 285.536 201.492 288.311C196.825 290.424 191.891 292.799 185.496 296.01L185.396 296.105C185.353 296.149 185.312 296.194 185.273 296.242C184.973 296.614 184.852 296.904 184.901 297.161C184.955 297.503 185.273 297.719 185.645 297.957L185.89 298.121C185.956 298.166 186.018 298.215 186.076 298.27L186.164 298.329C191.783 300.247 196.602 304.532 200.101 310.724C204.007 317.643 205.681 326.026 204.565 333.15V333.191L204.581 333.297C204.594 333.967 204.519 334.635 204.36 335.286C204.345 335.356 204.329 335.434 204.31 335.516C204.196 336.015 204.053 336.632 204.332 337.073C204.574 337.454 205.132 337.596 206.071 337.505C207.634 337.023 209.298 336.591 211.025 336.223C213.234 335.745 215.47 335.398 217.721 335.183C219.99 334.949 222.273 334.878 224.552 334.973C224.9 334.997 225.226 335.153 225.461 335.41C225.697 335.667 225.825 336.004 225.818 336.353C225.812 336.701 225.672 337.034 225.427 337.282C225.182 337.53 224.851 337.674 224.502 337.685H224.482H224.403C223.771 337.685 223.036 337.685 222.06 337.739C220.944 338.036 219.778 338.505 219.705 339.72C219.646 340.704 220.449 341.543 221.228 342.354C221.53 342.654 221.812 342.972 222.073 343.308L222.103 343.337C224.061 344.871 225.857 346.6 227.463 348.499L227.491 348.527C227.616 348.633 227.744 348.737 227.863 348.843L228.107 349.042L228.309 349.522L228.33 349.557C229.158 350.598 229.933 351.68 230.653 352.799C237.265 363.087 239.146 375.791 235.95 388.573C235.822 389.095 235.671 389.65 235.506 390.224L235.484 390.301L235.59 390.431L235.627 390.479L235.169 391.361C232.643 399.465 228.397 405.631 224.173 411.101C223.67 411.884 223.285 412.736 223.029 413.631C222.389 416.06 223.234 418.467 224.253 420.736C229.974 429.612 238.826 436.438 250.559 441.021C263.051 445.902 275.425 446.925 283.605 446.925H283.697C300.909 446.913 316.619 442.546 324.7 435.527L324.758 435.447L324.749 435.367C324.749 435.322 324.736 435.274 324.726 435.229C320.565 412.63 323.341 389.376 332.975 366.113C333.433 364.997 333.885 363.9 334.313 362.827C338.561 356.012 341.509 349.66 343.328 343.406C345.932 334.434 346.008 325.178 343.559 315.878L343.529 315.767H343.509C339.824 308.606 336.028 301.199 336.933 292.186C337.56 285.884 342.566 278.345 352.245 269.122C352.989 268.212 353.798 267.345 354.585 266.506C354.975 266.09 355.368 265.673 355.753 265.247C357.19 263.69 358.197 261.786 358.675 259.721V259.701C359.246 254.193 357.077 247.278 352.729 240.71Z" fill="#793BFF"/>
<path d="M137.253 228.014L137.222 228.03C135.745 228.996 134.081 229.639 132.339 229.915C132.049 229.97 131.757 230.017 131.465 230.063C130.672 230.156 129.893 230.343 129.145 230.621C128.189 231.027 127.563 231.829 126.958 232.604C126.845 232.749 126.731 232.894 126.605 233.052L124.308 236.348C123.746 237.156 123.415 238.103 123.353 239.085C123.29 240.067 123.497 241.047 123.952 241.92C124.406 242.793 125.091 243.525 125.932 244.037C126.772 244.548 127.737 244.82 128.721 244.823C129.005 244.823 129.288 244.801 129.568 244.757C130.288 244.648 130.979 244.392 131.597 244.005C132.215 243.619 132.747 243.11 133.161 242.511L141.438 230.595L141.46 230.554C141.855 229.624 141.873 228.88 141.511 228.231C140.681 226.775 138.618 227.521 137.253 228.014Z" fill="#FF4569"/>
<path d="M269.196 92.9237C268.904 85.3684 267.211 78.5701 264.174 72.7186C260.986 66.5192 255.906 61.3484 249.871 58.1603C244.105 55.0541 237.139 53.6852 229.725 54.2004C223.124 54.6524 216.333 56.5366 209.516 59.8027C203.13 62.9053 197.214 66.8941 191.943 71.6509C189.285 74.01 186.776 76.5327 184.432 79.2044C182.089 81.8837 179.892 84.6884 177.853 87.606C173.799 93.4545 170.448 99.7599 167.869 106.392C165.228 113.302 163.591 120.242 162.996 127.021C162.771 129.57 162.703 132.131 162.791 134.688L162.815 135.285C162.992 139.559 163.697 143.794 164.913 147.894C166.904 154.594 170.582 160.67 175.595 165.54C175.724 165.663 175.827 165.811 175.899 165.974C175.971 166.137 176.009 166.313 176.013 166.492C176.017 166.67 175.985 166.847 175.92 167.013C175.855 167.179 175.758 167.331 175.634 167.459C175.396 167.701 175.077 167.845 174.739 167.866C174.401 167.887 174.067 167.783 173.8 167.573C170.967 165.266 168.518 162.523 166.546 159.447C165.908 158.747 165.388 158.405 164.956 158.405H164.939C164.825 158.408 164.713 158.436 164.611 158.488C164.509 158.539 164.42 158.612 164.35 158.703C163.874 159.272 163.898 160.129 163.916 160.819V161.065C163.916 161.329 163.916 161.593 163.916 161.866L164.067 165.464C164.403 173.992 161.959 182.399 157.103 189.419L155.892 191.158L155.851 191.232C153.924 193.896 153.433 196.963 154.514 199.645C155.085 201.066 156.145 202.193 157.351 202.656C157.75 202.812 158.175 202.892 158.604 202.892C159.162 202.889 159.712 202.757 160.211 202.507C160.596 202.31 160.955 202.064 161.279 201.776L165.711 195.402C170.593 188.4 177.621 183.177 185.734 180.522L190.73 178.895L190.765 178.878C191.264 178.553 191.824 178.16 192.164 177.636C192.246 177.53 192.303 177.407 192.33 177.276C192.356 177.145 192.352 177.009 192.317 176.88C192.181 176.469 191.675 176.241 191.294 176.101L191.216 176.081C190.557 175.952 189.899 175.762 189.261 175.578C189.004 175.504 188.747 175.43 188.491 175.361C188.158 175.262 187.876 175.039 187.703 174.738C187.529 174.438 187.477 174.082 187.558 173.745C187.638 173.407 187.845 173.113 188.135 172.923C188.426 172.733 188.778 172.662 189.119 172.723L189.197 172.744C192.611 173.458 196.093 173.793 199.58 173.741C203.083 173.663 206.569 173.226 209.983 172.439C211.25 172.141 212.572 171.775 214.028 171.323L215.634 170.798C220.456 169.129 225.069 166.91 229.383 164.184C235.389 160.383 240.881 155.823 245.721 150.617C250.584 145.42 254.824 139.673 258.354 133.492C261.907 127.328 264.676 120.744 266.596 113.893C268.584 106.797 269.453 99.7406 269.196 92.9237ZM259.251 97.836C259.094 110.073 254.519 123.273 246.368 135.004C234.576 151.977 216.858 162.936 201.23 162.936C195.17 162.936 189.785 161.331 185.224 158.165C177.133 152.542 172.716 142.643 172.785 130.293C172.854 117.943 177.412 104.603 185.619 92.7898C193.773 81.0569 204.55 72.168 215.968 67.7598C221.065 65.7882 226.024 64.808 230.681 64.808C236.659 64.808 242.139 66.4243 246.759 69.6347C254.978 75.3467 259.412 85.3647 259.251 97.836Z" fill="#FF4569"/>
<path d="M406.131 83.9828C406.254 84.2376 406.399 84.511 406.579 84.8235C406.639 84.9236 406.705 85.0199 406.776 85.1118L406.827 85.1899H406.855C407.037 85.3605 407.276 85.4573 407.526 85.4615C407.568 85.4642 407.609 85.4642 407.651 85.4615C407.874 85.4298 408.123 85.2755 408.417 84.9797L408.447 84.9369C408.806 84.1644 409.285 83.4532 409.866 82.8296C412.569 79.9298 417.538 78.9924 422.527 80.4432C427.837 81.9833 432.781 81.0421 435.75 77.9247C435.986 77.6792 436.206 77.4183 436.408 77.1435L436.451 77.084L436.43 77.0133C434.528 70.2504 429.582 64.2482 423.198 60.9615L423.161 60.9429H423.12C418.377 61.2309 413.923 63.3174 410.666 66.7769C407.409 70.2363 405.594 74.8081 405.592 79.5597C405.59 81.03 405.766 82.4952 406.116 83.9232L406.131 83.9828Z" fill="#FFEC61"/>
<path d="M437.221 81.3936L437.199 81.1072L436.975 81.2932C433.092 84.4756 427.489 85.3238 421.606 83.6219C417.866 82.5412 414.122 83.129 412.288 85.0857C411.319 86.1273 410.857 87.5632 410.924 89.3786C411.412 91.6868 412.401 93.4892 414.159 95.2413C416.538 96.7746 419.235 97.7456 422.045 98.0808C424.855 98.416 427.705 98.1065 430.378 97.1757C434.321 94.6647 436.817 90.0798 437.227 84.5965C437.306 83.5303 437.305 82.4595 437.221 81.3936Z" fill="#FFEC61"/>
<path d="M210.982 341.667C208.956 341.295 206.518 341.637 203.75 342.493C203.599 342.536 203.449 342.584 203.292 342.638C203.106 342.697 202.921 342.759 202.72 342.824L202.243 342.986C201.574 343.228 200.893 343.492 200.197 343.782C199.639 344.005 199.081 344.252 198.51 344.505C198.204 344.645 197.889 344.788 197.58 344.933C197.153 345.132 196.719 345.337 196.278 345.549C196.031 345.67 195.784 345.796 195.534 345.921C195.094 346.138 194.655 346.362 194.208 346.59L194.141 346.626C193.461 346.975 192.772 347.331 192.08 347.705C191.814 347.844 191.55 347.987 191.284 348.132L190.168 348.735L189.162 349.293C188.114 350.298 187.349 351.562 186.945 352.957C186.933 352.98 186.927 353.004 186.926 353.03C186.906 353.117 186.891 353.206 186.884 353.296C186.863 353.403 186.849 353.512 186.841 353.621C186.83 353.718 186.822 353.807 186.817 353.917C186.811 354.027 186.805 354.176 186.805 354.309V354.393C186.805 354.562 186.805 354.724 186.817 354.893C186.835 355.278 186.871 355.665 186.919 356.045C186.919 356.112 186.93 356.171 186.943 356.231C186.954 356.346 186.973 356.454 186.991 356.567C187.07 357.068 187.177 357.563 187.298 358.055C187.353 358.201 187.415 358.345 187.484 358.489C188.184 360.068 188.913 361.642 189.672 363.197C190.23 364.022 190.81 364.848 191.396 365.674C195.175 371.025 199.461 377.094 200.436 386.913C201.496 397.54 199.115 407.997 193.998 417.404C193.984 417.612 193.911 417.81 193.788 417.977C193.589 418.267 193.384 418.561 193.185 418.857C192.516 420.002 191.808 421.131 191.063 422.244C190.334 423.552 189.817 424.968 189.532 426.438C188.974 429.591 189.834 432.712 190.738 435.725C192.397 439.409 194.25 443.001 196.288 446.489C196.764 447.068 197.294 447.713 197.807 447.977C198.754 448.472 199.416 447.743 199.785 446.917C199.911 446.43 200.043 445.94 200.177 445.464C200.256 444.873 200.423 444.296 200.672 443.753C200.793 443.35 200.919 442.951 201.044 442.559C201.135 442.263 201.23 441.975 201.326 441.685C201.442 441.341 201.561 440.998 201.676 440.66C201.791 440.321 201.924 439.966 202.048 439.63C202.21 439.183 202.374 438.75 202.543 438.328C202.675 437.978 202.814 437.634 202.952 437.297C203.138 436.826 203.324 436.367 203.531 435.917C203.657 435.616 203.789 435.32 203.916 435.032C204.404 433.947 204.906 432.896 205.422 431.879L205.893 430.975C206.218 430.348 206.555 429.732 206.893 429.13C207.063 428.828 207.238 428.527 207.405 428.231C207.572 427.936 207.749 427.64 207.924 427.352C207.948 427.166 207.972 426.991 207.991 426.809C208.188 426.665 208.372 426.504 208.54 426.327L208.564 426.303C208.871 425.808 209.179 425.321 209.494 424.839C208.43 423.355 207.468 421.802 206.613 420.189C205.725 418.575 204.929 416.914 204.226 415.211C204.091 414.867 204.086 414.486 204.212 414.138C204.338 413.79 204.587 413.501 204.911 413.323C205.236 413.146 205.614 413.093 205.975 413.174C206.335 413.255 206.654 413.465 206.871 413.764C207.929 415.27 208.899 416.836 209.776 418.453C210.392 419.569 210.976 420.695 211.501 421.859C213.733 418.697 216.015 415.825 218.221 413.059C224.255 405.489 229.95 398.336 232.601 387.717C235.56 375.874 233.843 364.14 227.75 354.659C223.295 347.742 216.876 342.764 210.982 341.667ZM202.894 411.73C202.683 411.558 202.452 411.41 202.208 411.289C202.208 411.211 202.208 411.132 202.197 411.054C202.596 410.938 203.012 410.894 203.426 410.922C203.248 411.194 203.075 411.46 202.893 411.731L202.894 411.73ZM211.387 347.952C211.304 347.909 211.212 347.874 211.121 347.837C211.484 347.728 211.859 347.661 212.237 347.638C212.261 347.649 212.286 347.667 212.315 347.686C211.995 347.736 211.683 347.826 211.385 347.954L211.387 347.952Z" fill="#FFEC61"/>
<path d="M414.319 380.112V379.851C412.881 358.662 405.711 338.262 393.576 320.832L393.477 320.688L393.351 320.807C392.12 321.962 390.831 323.039 389.731 323.94C388.109 325.281 386.407 326.523 384.635 327.66C384.328 327.852 383.958 327.915 383.605 327.835C383.253 327.754 382.946 327.538 382.753 327.232C382.591 326.971 382.521 326.663 382.555 326.358C382.588 326.053 382.724 325.768 382.939 325.549C384.427 324.058 386.005 322.659 387.663 321.36C389.14 320.179 390.405 319.23 391.643 318.384L391.772 318.296L391.679 318.172C381.339 304.19 368.034 292.669 352.717 284.435C351.464 283.987 350.169 283.522 348.793 283.349C344.573 282.83 342.368 286.373 340.916 289.537C340.582 290.496 340.357 291.49 340.246 292.5C339.441 300.552 342.878 307.25 346.518 314.342L346.537 314.379C349.643 320.422 352.861 326.67 353.45 334.16V334.22L353.469 334.238V334.261V334.287C354.01 341.559 351.942 348.879 347.145 356.664C346.33 357.979 345.491 359.408 344.507 361.16L344.442 361.275L344.55 361.354C345.411 361.988 346.286 362.7 347.299 363.599C348.542 364.693 349.718 365.862 350.818 367.099C350.936 367.235 351.026 367.393 351.083 367.564C351.139 367.735 351.162 367.915 351.148 368.095C351.135 368.274 351.087 368.449 351.006 368.61C350.925 368.771 350.813 368.914 350.677 369.032C350.45 369.227 350.166 369.342 349.867 369.361C349.568 369.38 349.271 369.301 349.022 369.136C347.657 368.199 346.353 367.179 345.116 366.08C344.329 365.388 343.682 364.778 343.079 364.181L342.934 364.036L342.839 364.222C339.274 370.911 336.369 377.932 334.168 385.186C332.617 390.35 331.497 395.634 330.82 400.983C330.812 401.009 330.809 401.036 330.81 401.063V401.104C330.734 402.017 330.686 402.939 330.66 403.925C330.619 404.061 330.589 404.199 330.559 404.349C330.505 404.645 330.457 404.935 330.407 405.251C329.261 420.745 332.523 435.276 339.843 447.276C345.674 456.837 349.515 467.059 351.237 477.658L351.295 478.009L351.507 477.724C351.892 477.207 352.286 476.692 352.68 476.192C353.824 474.743 355.204 473.047 356.756 471.436C356.99 471.192 357.306 471.045 357.643 471.021C357.98 470.997 358.314 471.099 358.58 471.308C358.847 471.516 359.026 471.815 359.084 472.148C359.142 472.481 359.074 472.824 358.895 473.11C357.779 474.874 356.575 476.581 355.288 478.225C354.016 479.86 352.939 481.139 351.897 482.252L351.851 482.302V482.369C351.985 483.727 352.078 485.031 352.128 486.241V486.281C352.362 487.025 352.656 487.863 353.207 488.498C353.631 488.981 354.207 489.151 354.819 489.151C355.521 489.119 356.212 488.971 356.865 488.715C376.644 477.096 392.438 460.155 402.536 439.725L402.554 439.686L402.418 439.621L402.575 439.637C403.293 437.924 403.97 436.159 404.578 434.407C405.93 431.604 407.191 428.687 408.311 425.764C408.332 425.733 408.346 425.698 408.352 425.661C413.57 412.077 416.077 397.602 415.73 383.054C415.688 381.458 414.953 380.577 414.319 380.112Z" fill="#FFEC61"/>
<path d="M346.864 492.411C344.357 474.194 336.202 457.928 326.59 440.069C326.394 439.699 326.144 439.362 325.846 439.068L325.764 438.99L325.392 439.202C323.626 440.525 321.75 441.694 319.784 442.695L319.702 442.738V442.829C319.702 442.833 319.702 442.838 319.702 442.842L319.626 442.883C319.575 442.875 319.523 442.871 319.472 442.872L319.403 442.888C310.062 447.611 297.384 450.219 283.702 450.232H283.611C273.195 450.232 237.909 448.225 221.373 422.376C220.641 421.58 219.839 420.803 218.786 420.803H218.76C216.9 420.821 215.178 422.908 213.924 424.433L213.853 424.521C208.787 431.831 205.545 438.744 203.341 446.96C202.664 452.335 204.006 457.769 207.105 462.212C213.101 469.431 219.934 475.911 227.459 481.517L227.523 481.545C228.453 481.714 229.238 481.522 229.879 480.968C230.793 480.176 230.98 478.658 231.131 477.434C231.153 477.259 231.174 477.092 231.194 476.936C231.334 475.959 231.523 474.946 231.776 473.807C231.847 473.352 231.92 472.894 231.996 472.44C232.042 472.191 232.085 471.94 232.128 471.696C232.206 471.242 232.286 470.766 232.388 470.32C232.863 467.868 233.504 465.212 234.416 461.961C235.238 459.059 236.118 456.381 237.105 453.79C237.232 453.461 237.483 453.194 237.804 453.046C238.124 452.899 238.49 452.882 238.823 453C239.155 453.117 239.429 453.36 239.586 453.677C239.742 453.993 239.769 454.358 239.661 454.694L239.648 454.731C238.904 456.963 238.177 459.521 237.336 462.751C236.54 465.913 235.984 468.499 235.586 470.913C235.273 472.87 234.924 475.146 234.728 477.412C234.764 478.089 234.782 478.779 234.799 479.449C234.821 480.354 234.845 481.29 234.916 482.22C235.123 484.865 236.134 486.848 238.219 488.667C242.349 491.094 246.623 493.268 251.016 495.177C252.166 495.486 253.767 495.72 254.388 494.178C254.695 493.413 254.76 492.454 254.811 491.524C254.835 491.126 254.857 490.752 254.9 490.408C254.928 490.194 254.952 489.98 254.978 489.764C255.004 489.548 255.03 489.336 255.058 489.108C255.105 487.501 255.173 486.048 255.268 484.666C255.397 482.784 255.542 481.201 255.72 479.681C255.739 479.504 255.793 479.333 255.88 479.177C255.966 479.022 256.082 478.885 256.222 478.775C256.431 478.608 256.685 478.506 256.951 478.483C257.218 478.46 257.485 478.516 257.72 478.645C257.954 478.773 258.146 478.968 258.269 479.205C258.393 479.442 258.444 479.711 258.415 479.977C258.287 481.426 258.192 483.009 258.125 484.813C258.114 485.168 258.107 485.525 258.103 485.89V485.966C258.108 486.01 258.112 486.054 258.112 486.098V486.284C258.053 489.446 257.989 492.709 259.329 495.655C260.173 497.515 261.479 498.817 263.46 499.775C274.47 503.147 285.921 504.864 297.436 504.867C300.113 504.867 302.83 504.771 305.791 504.566C307.408 504.081 308.276 503.063 308.447 501.452C308.47 501.218 308.485 500.967 308.49 500.645C308.392 499.003 308.273 497.238 308.055 495.459C307.65 492.015 307.033 488.598 306.208 485.229V485.192C306.123 484.844 306.179 484.475 306.365 484.168C306.551 483.861 306.851 483.64 307.199 483.554C307.538 483.473 307.895 483.524 308.198 483.697C308.5 483.87 308.726 484.151 308.829 484.484C309.318 486.18 309.824 487.934 310.194 489.725C310.566 491.358 310.886 493.097 311.182 495.043C311.332 496.006 311.464 496.998 311.587 498.091C311.831 499.163 312.251 500.721 313.09 501.86C314.673 504.023 317.614 503.214 319.76 502.622L319.849 502.598C320.039 502.543 320.24 502.543 320.43 502.598L320.465 502.609H320.502C327.359 501.244 334.077 499.256 340.572 496.668C340.631 496.629 340.691 496.585 340.746 496.538L340.774 496.555L340.88 496.544C341.683 496.23 342.522 495.884 343.399 495.504C344.937 494.481 346.031 493.533 346.838 492.528L346.879 492.478L346.864 492.411Z" fill="#1DFFC4"/>
<path d="M245.384 206.257L245.395 206.356L245.49 206.386C245.552 206.406 245.615 206.423 245.676 206.438C245.691 207.31 245.699 208.253 245.699 209.328C246.612 219.372 246.608 228.341 245.687 236.774L245.676 236.873L245.762 236.921C245.832 236.962 245.905 236.999 245.978 237.033C245.853 237.243 245.726 237.451 245.606 237.658L245.583 237.719C245.267 240.388 244.882 242.875 244.4 245.354C244.4 245.375 244.4 245.395 244.4 245.414C244.4 245.433 244.4 245.466 244.4 245.481C244.4 245.57 244.382 245.678 244.369 245.795C244.287 246.539 244.166 247.642 244.724 248.115C244.873 248.244 245.064 248.315 245.261 248.314C245.86 248.314 246.66 247.724 247.679 246.53C263.861 225.114 265.415 200.904 264.964 182.206C264.935 181.024 264.545 179.879 263.847 178.924C263.149 177.97 262.176 177.252 261.058 176.866C260.128 176.548 259.174 176.27 258.218 176.04C257.372 175.876 256.317 175.742 255.659 176.17C254.401 176.996 254.766 178.884 255.008 180.132L255.039 180.294C255.063 180.43 255.063 180.57 255.039 180.706V180.731V180.755C255.473 183.31 255.802 185.87 256.02 188.36C256.237 190.851 256.392 193.431 256.447 196.053C256.514 198.429 256.483 200.947 256.351 203.752C256.341 204.111 256.19 204.453 255.929 204.7C255.668 204.948 255.319 205.082 254.959 205.072C254.6 205.063 254.259 204.911 254.011 204.65C253.763 204.389 253.63 204.041 253.639 203.681C253.639 201.434 253.581 198.977 253.453 196.169C253.321 193.671 253.107 191.147 252.819 188.691C252.488 185.967 252.127 183.545 251.714 181.289C251.511 180.152 251.28 179.016 251.078 178.043C250.922 177.413 250.652 176.816 250.282 176.283C249.802 175.644 249.007 175.327 247.767 175.29C246.42 175.407 245.082 175.605 243.759 175.884C242.853 176.084 242.063 176.634 241.561 177.414C241.058 178.194 240.884 179.141 241.076 180.048C243.175 190.152 244.543 198.481 245.384 206.257Z" fill="#1DFFC4"/>
<path d="M217.462 260.162L232.692 265.768C233.274 265.981 233.896 266.063 234.514 266.009C235.132 265.955 235.73 265.766 236.266 265.455C236.768 265.175 237.201 264.787 237.533 264.317C237.865 263.848 238.088 263.31 238.184 262.744L238.203 262.623C238.324 261.701 238.131 260.766 237.654 259.969C237.177 259.171 236.445 258.558 235.576 258.229L220.401 252.37C219.909 252.181 219.386 252.084 218.859 252.084C218.229 252.079 217.606 252.224 217.043 252.506C216.48 252.789 215.991 253.201 215.619 253.709C215.402 254.012 215.215 254.335 215.061 254.673C214.834 255.168 214.714 255.705 214.707 256.25C214.7 256.794 214.807 257.334 215.022 257.835C215.248 258.369 215.581 258.851 216.001 259.251C216.42 259.652 216.918 259.961 217.462 260.162Z" fill="#1DFFC4"/>
<path d="M251.909 220.198C251.932 220.55 252.076 220.883 252.317 221.14C252.558 221.397 252.881 221.564 253.23 221.61C253.579 221.656 253.934 221.58 254.234 221.395C254.534 221.209 254.76 220.926 254.874 220.592C255.277 219.33 255.553 218.03 255.698 216.712C255.878 215.4 255.956 214.076 255.93 212.752C255.917 212.395 255.778 212.054 255.538 211.789C255.297 211.524 254.971 211.352 254.617 211.304C254.262 211.255 253.902 211.334 253.6 211.525C253.297 211.716 253.072 212.008 252.964 212.349L252.932 212.449C252.562 213.686 252.291 214.949 252.121 216.229C251.918 217.505 251.844 218.798 251.902 220.088L251.909 220.198Z" fill="black"/>
<path d="M273.176 203.633C273.276 204.422 273.538 205.181 273.945 205.865C274.301 206.484 274.746 207.048 275.265 207.539C275.781 208.032 276.361 208.453 276.989 208.792C277.686 209.173 278.451 209.415 279.24 209.503C279.467 209.525 279.695 209.521 279.921 209.492C280.295 209.441 280.656 209.317 280.982 209.127C281.309 208.937 281.595 208.685 281.824 208.384C282.052 208.084 282.22 207.741 282.316 207.376C282.413 207.01 282.436 206.63 282.385 206.255C282.272 205.468 282.007 204.71 281.604 204.023C281.247 203.406 280.809 202.839 280.302 202.338C279.796 201.835 279.22 201.409 278.591 201.072C277.892 200.686 277.122 200.448 276.327 200.374C276.129 200.358 275.93 200.361 275.732 200.383C275.35 200.428 274.981 200.547 274.646 200.735C274.311 200.923 274.016 201.175 273.778 201.477C273.541 201.779 273.365 202.125 273.262 202.495C273.159 202.865 273.13 203.251 273.176 203.633Z" fill="black"/>
<path d="M325.526 352.708C325.184 352.676 324.936 352.658 324.654 352.649C324.371 352.639 324.105 352.636 323.837 352.649C323.294 352.649 322.764 352.689 322.228 352.717C321.166 352.819 320.11 352.982 319.066 353.205C316.981 353.645 314.957 354.335 313.038 355.26C311.137 356.205 309.284 357.284 307.655 358.642C306.803 359.272 306.063 360.031 305.282 360.74C304.887 361.091 304.567 361.513 304.208 361.897C303.849 362.28 303.513 362.683 303.174 363.081C302.921 363.373 302.789 363.751 302.806 364.137C302.824 364.523 302.989 364.887 303.268 365.155C303.546 365.422 303.917 365.572 304.304 365.574C304.69 365.575 305.062 365.428 305.343 365.163L305.417 365.094C306.825 363.792 308.207 362.49 309.766 361.415C310.157 361.149 310.529 360.857 310.919 360.598L312.121 359.854C312.516 359.601 312.925 359.369 313.345 359.159C313.763 358.945 314.163 358.697 314.597 358.515C316.287 357.698 318.052 357.047 319.868 356.569C320.773 356.327 321.69 356.133 322.615 355.987C323.074 355.924 323.545 355.842 323.997 355.801C324.228 355.775 324.456 355.757 324.681 355.744C324.907 355.731 325.152 355.716 325.31 355.706H325.468C325.849 355.688 326.208 355.526 326.474 355.252C326.739 354.979 326.891 354.615 326.898 354.234C326.905 353.853 326.768 353.484 326.513 353.2C326.258 352.917 325.905 352.741 325.526 352.708Z" fill="black"/>
<path d="M185.139 158.286C189.824 161.543 195.339 163.085 201.23 163.085C216.482 163.085 234.217 152.751 246.489 135.095C254.658 123.342 259.245 110.112 259.403 97.8434C259.565 85.3126 255.106 75.25 246.848 69.51C238.59 63.7701 227.604 63.0968 215.914 67.6147C204.468 72.0378 193.667 80.9472 185.496 92.7005C168.484 117.18 168.33 146.601 185.139 158.286ZM188.466 94.7633C196.228 83.6033 206.439 75.1533 217.218 70.9869C221.902 69.1771 226.436 68.2769 230.668 68.2769C235.954 68.2769 240.762 69.683 244.783 72.4786C252.024 77.5118 255.932 86.503 255.787 97.7969C255.638 109.351 251.282 121.865 243.511 133.033C227.643 155.868 202.379 165.873 187.202 155.321C172.024 144.769 172.591 117.606 188.466 94.7688V94.7633Z" fill="black"/>
<path d="M408.973 95.5314C409.038 95.6047 409.109 95.6725 409.185 95.7342C413.367 99.6893 418.926 101.857 424.682 101.777C430.437 101.697 435.934 99.3751 440.004 95.3051C444.074 91.2351 446.396 85.738 446.476 79.9827C446.556 74.2274 444.388 68.6679 440.433 64.4862C440.381 64.4241 440.325 64.3657 440.266 64.3113C438.234 62.1777 435.797 60.4718 433.096 59.2937C430.396 58.1157 427.488 57.4893 424.542 57.4515C421.596 57.4136 418.673 57.9651 415.943 59.0734C413.214 60.1817 410.733 61.8244 408.648 63.9052C406.562 65.9859 404.914 68.4625 403.799 71.1895C402.684 73.9165 402.126 76.8388 402.157 79.7846C402.188 82.7304 402.808 85.6404 403.98 88.3433C405.151 91.0462 406.852 93.4876 408.98 95.524L408.973 95.5314ZM424.249 98.0592C420.698 98.062 417.223 97.0368 414.242 95.1073C412.622 93.4891 411.568 91.7128 411.067 89.3413C411.013 87.7994 411.346 86.3114 412.397 85.1842C414.19 83.2629 417.875 82.69 421.563 83.7595C428.14 85.666 434.384 84.3733 438.262 80.3017C439.403 79.104 440.296 77.6924 440.889 76.1484C441.197 75.8154 441.556 75.6034 441.953 75.728C442.228 75.8154 442.375 76.1205 442.481 76.4255C442.94 79.0811 442.812 81.8049 442.108 84.4061C441.403 87.0073 440.138 89.4229 438.401 91.4838C436.665 93.5446 434.499 95.2008 432.055 96.3363C429.611 97.4718 426.948 98.0592 424.253 98.0573L424.249 98.0592ZM424.249 61.0452C427.489 61.0425 430.671 61.8959 433.475 63.519C435.76 65.1952 437.411 67.595 438.16 70.3284C438.326 73.2709 437.47 75.8824 435.643 77.8019C432.716 80.8783 427.831 81.8046 422.571 80.2813C417.531 78.8193 412.5 79.7735 409.756 82.7104C409.165 83.3465 408.678 84.0714 408.313 84.8587C408.133 85.0686 407.895 85.2201 407.628 85.294C407.044 85.3758 406.628 84.7899 406.339 84.204C405.629 81.4684 405.555 78.6066 406.123 75.8379C406.69 73.0692 407.884 70.4673 409.613 68.2317C411.342 65.996 413.56 64.1861 416.097 62.9407C418.634 61.6953 421.423 61.0475 424.249 61.047V61.0452Z" fill="black"/>
<path d="M493.555 122.875C493.357 120.563 492.365 118.39 490.747 116.726C489.13 115.061 486.986 114.007 484.681 113.743L482.897 113.542L482.849 112.948L482.711 111.224L482.638 110.363L482.601 109.93L482.53 109.372C482.29 107.87 481.62 106.469 480.6 105.34C479.581 104.211 478.257 103.401 476.787 103.009C476.42 102.912 476.047 102.841 475.671 102.795L474.804 102.696L473.945 102.599L473.515 102.551L472.957 102.516C471.442 102.448 469.939 102.821 468.631 103.59C467.323 104.358 466.267 105.49 465.59 106.848C465.256 107.525 465.022 108.246 464.896 108.99C464.875 109.087 464.868 109.176 464.855 109.281C463.022 109.008 461.15 109.302 459.489 110.123C457.995 110.866 456.735 112.008 455.849 113.422C454.963 114.836 454.484 116.467 454.467 118.136C454.48 118.677 454.519 119.252 454.558 119.641L454.671 120.943L455.581 131.422L456.647 143.348L453.916 138.094C452.94 136.277 451.312 134.896 449.359 134.231C447.406 133.566 445.274 133.665 443.391 134.508C441.508 135.351 440.015 136.875 439.211 138.775C438.406 140.675 438.351 142.808 439.057 144.747L447.642 167.329C356.203 210.081 335.099 221.29 317.009 231.499C306.675 237.334 301.353 243.178 296.659 248.336C293.287 252.041 290.229 255.393 285.765 258.413C285.006 258.683 284.251 258.653 283.739 257.777C283.484 257.324 283.355 256.81 283.367 256.289C283.535 255.584 283.699 254.878 283.86 254.171C284.569 252.125 285.997 250.527 288.021 249.707C288.157 249.653 288.283 249.577 288.393 249.482C289.252 249.058 290.095 248.604 290.91 248.096C294.801 245.678 298.212 242.33 300.396 238.169C301.521 236.084 302.273 233.818 302.618 231.473C302.724 230.887 302.748 230.288 302.804 229.693C302.86 229.098 302.804 228.484 302.789 227.88C302.713 226.695 302.531 225.519 302.246 224.366C301.68 222.138 300.87 219.98 299.828 217.931C299.134 216.577 298.376 215.269 297.576 213.995L299.17 207.734C299.266 207.358 299.238 206.961 299.09 206.602C298.943 206.243 298.684 205.941 298.351 205.74L282.084 195.925C280.968 194.866 279.836 193.822 278.687 192.793C275.429 189.886 272.114 187.112 268.601 184.443C268.549 184.407 268.495 184.375 268.439 184.345C268.439 183.601 268.42 182.857 268.402 182.113C268.351 180.223 267.725 178.394 266.608 176.869C265.491 175.344 263.936 174.196 262.15 173.577C254.478 170.951 247.508 171.531 243.011 172.487C241.524 172.81 240.184 173.611 239.196 174.768C238.208 175.924 237.625 177.372 237.537 178.891H237.524C221.465 182.983 208.88 194.612 204.693 209.228C200.973 222.194 204.321 235.988 213.868 247.64C214.205 248.217 214.581 248.894 214.475 249.407C214.393 249.802 214.116 250.17 213.805 250.538C213.426 250.881 213.083 251.262 212.784 251.677C212.436 252.161 212.136 252.678 211.887 253.22C211.462 254.148 211.235 255.155 211.221 256.176C211.207 257.196 211.406 258.209 211.806 259.148C212.017 259.655 212.283 260.137 212.598 260.586C213.011 261.345 213.379 262.13 213.461 262.971C213.517 263.588 213.453 264.211 213.275 264.804C203.633 280.966 183.995 280.655 163.291 280.324C160.557 280.28 157.748 280.237 154.968 280.233L154.425 272.049L153.882 263.865L153.749 261.838C153.723 261.338 153.769 260.837 153.885 260.35C154.128 259.371 154.657 258.487 155.403 257.809L161.716 252.765L162.523 252.117L163.364 251.416C163.907 250.929 164.446 250.434 164.956 249.91C165.979 248.867 166.921 247.748 167.774 246.562C169.48 244.181 170.804 241.548 171.698 238.759C171.927 238.065 172.113 237.358 172.292 236.648L172.522 235.576L172.72 234.563L173.495 230.54L174.271 226.516L174.457 225.51C174.514 225.127 174.596 224.716 174.622 224.314C174.693 223.505 174.682 222.69 174.589 221.883C174.395 220.267 173.868 218.709 173.041 217.308C172.213 215.906 171.104 214.692 169.783 213.742C169.463 213.491 169.106 213.299 168.765 213.082L167.871 212.572L166.098 211.556L162.534 209.533L160.808 208.552L168.564 197.392C173.017 191.014 179.422 186.255 186.815 183.835L215.087 174.641C215.645 174.466 216.203 174.288 216.761 174.098L217.588 173.828C217.694 173.793 217.796 173.748 217.893 173.694C222.558 171.988 227.028 169.792 231.23 167.143C237.492 163.184 243.218 158.433 248.263 153.007C253.311 147.609 257.711 141.64 261.375 135.222C265.072 128.808 267.954 121.957 269.953 114.829C271.932 107.694 272.946 100.245 272.676 92.7861C272.406 85.3275 270.755 77.8373 267.252 71.1059C263.796 64.3709 258.239 58.6439 251.496 55.0857C248.131 53.2987 244.513 52.0379 240.766 51.3471C237.048 50.6638 233.258 50.4556 229.487 50.7278C221.972 51.2467 214.702 53.4545 208.009 56.6649C201.33 59.9078 195.141 64.0754 189.625 69.045C186.862 71.5006 184.253 74.1245 181.813 76.9017C179.385 79.6836 177.109 82.595 174.996 85.6232C170.784 91.7038 167.302 98.2588 164.621 105.153C161.98 112.059 160.178 119.317 159.53 126.729C159.344 128.881 159.259 131.048 159.279 133.219C159.279 133.243 159.279 133.267 159.279 133.291V133.427C159.294 134.593 159.342 135.758 159.424 136.922L160.617 165.624C160.926 173.397 158.699 181.059 154.27 187.455L149.641 194.117L143.774 189.095C142.26 187.799 140.498 186.824 138.596 186.229C136.694 185.634 134.69 185.432 132.707 185.634C130.725 185.837 128.804 186.441 127.061 187.408C125.318 188.376 123.791 189.688 122.57 191.264L117.682 197.573L117.636 197.634L109.654 207.937C109.371 208.14 109.153 208.421 109.028 208.746L106.965 211.408C104.61 214.438 103.205 218.097 102.925 221.924C102.645 225.751 103.503 229.576 105.391 232.917L115.313 250.529C116.735 253.051 117.413 255.924 117.267 258.815C116.854 267.079 116.425 274.705 116.012 282.08C115.871 284.6 115.733 287.059 115.599 289.457C100.109 299.501 100.161 315.886 105.315 338.953C106.638 344.868 107.13 349.911 106.844 354.349C106.844 354.397 106.844 354.447 106.835 354.496C105.745 370.372 94.6089 378.46 75.609 390.818C62.6169 399.266 57.6191 418.515 64.4713 433.724C67.7003 440.893 74.9264 450.392 91.0154 454.928C97.0157 456.622 103.689 457.468 111.035 457.467C122.105 457.467 134.657 455.54 148.573 451.692C163.155 447.657 175.558 440.054 184.603 430.363C188.079 439.499 192.648 448.18 198.211 456.217C198.31 456.452 198.458 456.663 198.644 456.836C205.79 467.057 214.469 476.114 224.376 483.689C245.52 499.814 270.779 508.338 297.44 508.338C316.505 508.338 334.742 504.017 351.648 495.493C371.902 485.296 388.872 469.597 400.612 450.197C412.352 430.797 418.387 408.481 418.025 385.809C417.663 363.136 410.919 341.024 398.565 322.008C386.212 302.993 368.75 287.844 348.181 278.299C370.092 253.031 432.716 217.071 469.306 196.063C470.697 195.319 493.958 182.559 496.255 155.384C496.264 155.284 496.264 155.182 496.255 155.081L493.555 122.875ZM285.354 204.487C288.254 207.552 290.927 210.825 293.352 214.279C294.522 215.991 295.589 217.771 296.547 219.61C297.465 221.404 298.183 223.293 298.688 225.244C299.157 227.171 299.317 229.04 299.014 230.96C298.733 232.89 298.115 234.756 297.189 236.473C295.362 239.966 292.422 242.89 289.016 245.018C285.565 247.147 281.679 248.471 277.646 248.892C273.619 249.35 269.514 248.916 265.543 247.838H265.524C265.148 247.73 264.745 247.772 264.4 247.956C264.055 248.14 263.794 248.45 263.674 248.822C263.553 249.194 263.582 249.599 263.753 249.95C263.925 250.301 264.227 250.572 264.594 250.706C267.12 251.653 269.763 252.252 272.451 252.486C274.175 252.832 275.95 253.059 277.354 254.003C278.842 255 279.073 257.165 278.95 259.397C278.844 259.888 278.736 260.381 278.63 260.872C278.479 261.574 278.334 262.277 278.183 262.978C278.018 263.284 277.944 263.632 277.971 263.979C277.369 266.826 276.775 269.676 276.214 272.535C276.143 272.917 276.223 273.311 276.436 273.636C276.649 273.961 276.98 274.191 277.358 274.278C277.737 274.365 278.135 274.303 278.468 274.105C278.802 273.906 279.047 273.586 279.151 273.212C279.195 273.042 279.238 272.871 279.283 272.702C279.283 272.687 279.298 272.676 279.303 272.659C280.521 269.497 281.82 266.268 284.483 264.021C285.642 263.045 286.847 262.236 287.971 261.319C290.073 259.875 292.053 258.262 293.893 256.496C294.907 255.821 296.114 255.38 296.889 256.518C296.98 256.653 297.063 256.793 297.139 256.937C299.51 265.167 303.355 285.395 292.407 306.673C291.801 307.527 291.021 308.241 290.117 308.769C288.891 309.446 287.513 309.63 286.111 309.64C275.486 307.664 251.572 301.577 236.545 285.14C235.508 283.427 234.591 281.273 236.079 279.761C237.334 278.485 239.642 278.645 241.588 279.026L242.31 279.212C244.122 279.755 245.835 280.588 247.382 281.677L247.432 281.712C247.727 281.92 248.087 282.015 248.446 281.98C248.805 281.945 249.139 281.782 249.389 281.521C249.638 281.26 249.785 280.919 249.804 280.559C249.823 280.198 249.712 279.843 249.491 279.558C249.426 279.377 249.318 279.216 249.175 279.087C244.525 274.774 242.444 268.671 243.667 262.413C244.888 256.18 248.702 250.914 252.484 245.974C252.594 245.837 252.669 245.675 252.705 245.503C257.422 238.621 261.034 231.092 263.614 222.791C265.738 215.955 267.148 208.526 267.881 200.361C268.34 198.239 268.947 196.083 269.916 194.188C270.928 192.211 272.235 192.423 273.571 193.202C274.467 193.981 275.355 194.766 276.234 195.557C279.409 198.404 282.458 201.386 285.354 204.487ZM218.859 252.233C219.368 252.233 219.872 252.328 220.347 252.512L235.522 258.369C236.359 258.685 237.065 259.275 237.524 260.043C237.984 260.811 238.17 261.711 238.054 262.599L238.033 262.718C237.94 263.261 237.726 263.778 237.408 264.228C237.089 264.679 236.674 265.052 236.192 265.322C235.675 265.622 235.097 265.804 234.501 265.855C233.905 265.907 233.305 265.826 232.744 265.619L217.51 260.017C216.985 259.823 216.506 259.523 216.102 259.136C215.697 258.749 215.377 258.282 215.161 257.766C214.955 257.286 214.851 256.768 214.857 256.245C214.863 255.722 214.978 255.206 215.195 254.731C215.346 254.401 215.529 254.086 215.741 253.791C216.099 253.302 216.569 252.905 217.111 252.634C217.653 252.363 218.253 252.225 218.859 252.233ZM243.783 176.036C245.1 175.758 246.432 175.559 247.772 175.441C248.723 175.476 249.632 175.679 250.153 176.371C250.511 176.89 250.771 177.47 250.921 178.082C251.146 179.155 251.36 180.23 251.556 181.311C252 183.761 252.355 186.229 252.655 188.708C252.954 191.188 253.157 193.68 253.287 196.176C253.418 198.672 253.488 201.176 253.484 203.681V203.69C253.48 203.888 253.514 204.085 253.586 204.27C253.658 204.454 253.765 204.623 253.901 204.766C254.038 204.909 254.202 205.024 254.383 205.104C254.564 205.184 254.759 205.227 254.957 205.231C255.155 205.236 255.351 205.201 255.536 205.13C255.72 205.058 255.889 204.951 256.032 204.815C256.175 204.678 256.29 204.514 256.37 204.333C256.45 204.152 256.493 203.957 256.498 203.759C256.617 201.194 256.663 198.622 256.594 196.051C256.526 193.481 256.392 190.91 256.163 188.345C255.934 185.781 255.605 183.256 255.181 180.719C255.209 180.567 255.209 180.411 255.181 180.258C254.956 179.085 254.504 177.096 255.739 176.285C256.306 175.913 257.255 175.995 258.181 176.175C259.111 176.399 260.041 176.668 261.004 176.994C262.094 177.371 263.043 178.071 263.724 179.002C264.405 179.933 264.785 181.049 264.814 182.202C265.275 201.492 263.467 225.365 247.557 246.433C246.584 247.568 245.47 248.546 244.815 247.99C244.231 247.495 244.499 246.102 244.545 245.485C244.545 245.438 244.545 245.395 244.545 245.349C248.836 223.313 245.431 200.281 241.225 180.007C241.043 179.142 241.209 178.24 241.688 177.496C242.167 176.753 242.92 176.228 243.783 176.036ZM119.258 205.727C118.205 205.413 117.418 204.797 118.002 203.385C118.124 203.094 118.262 202.809 118.413 202.532C119.435 201.399 120.672 200.481 122.053 199.832C123.433 199.183 124.93 198.816 126.454 198.752C126.665 198.743 126.869 198.679 127.047 198.566C131.325 198.741 135.417 201.814 142.963 209.445C143.646 210.314 144.438 211.075 145.195 211.921C146.774 213.667 147.027 215.368 146.311 217.177C145.82 218.011 145.144 218.721 144.336 219.253C143.339 219.573 142.349 219.884 141.261 219.666C139.827 219.378 138.616 218.55 137.504 217.605C135.765 215.968 134.006 214.343 132.157 212.769C130.222 211.116 128.202 209.503 125.894 208.136C125.336 207.782 124.7 207.494 124.105 207.172C123.51 206.851 122.821 206.635 122.182 206.371C121.228 206.069 120.25 205.854 119.258 205.727ZM124.557 236.529L126.852 233.231C127.574 232.346 128.21 231.351 129.27 230.906C130.26 230.489 131.346 230.413 132.402 230.208C134.183 229.929 135.884 229.272 137.391 228.282C138.855 227.755 140.577 227.193 141.256 228.386C141.607 229.003 141.499 229.721 141.189 230.441L132.917 242.345C132.142 243.441 130.964 244.186 129.642 244.418C128.319 244.649 126.958 244.349 125.856 243.582C124.754 242.815 124 241.643 123.758 240.322C123.516 239.002 123.806 237.639 124.564 236.531L124.557 236.529ZM164.221 165.477L164.072 161.881C164.072 161.617 164.072 161.351 164.072 161.083C164.063 160.362 163.972 159.409 164.467 158.82C164.962 158.23 165.748 158.82 166.44 159.564C168.416 162.644 170.867 165.391 173.704 167.703C174.006 167.942 174.389 168.056 174.773 168.022C175.157 167.987 175.514 167.807 175.769 167.518C176.025 167.229 176.159 166.853 176.146 166.467C176.133 166.082 175.972 165.716 175.697 165.445L175.684 165.432C170.691 160.584 167.029 154.533 165.051 147.861C163.838 143.773 163.136 139.55 162.962 135.289L162.938 134.692C162.851 132.139 162.921 129.583 163.146 127.038C163.76 120.011 165.477 113.073 168.006 106.453C170.583 99.8297 173.929 93.5319 177.976 87.6897C180.009 84.7768 182.199 81.9759 184.534 79.2992C186.876 76.6331 189.381 74.1142 192.034 71.7569C197.297 67.0124 203.202 63.0331 209.575 59.9366C215.924 56.8881 222.768 54.8253 229.727 54.3473C236.685 53.8693 243.729 55.0244 249.792 58.2924C255.905 61.5598 260.874 66.6173 264.033 72.7874C267.234 78.9347 268.779 85.919 269.055 92.9256C269.33 99.9322 268.365 107.034 266.471 113.852C264.553 120.69 261.788 127.262 258.241 133.414C254.717 139.589 250.485 145.332 245.63 150.526C240.798 155.724 235.316 160.276 229.319 164.071C225.016 166.79 220.414 169.004 215.604 170.67L213.997 171.193C212.665 171.607 211.324 171.99 209.968 172.309C206.564 173.093 203.089 173.525 199.597 173.599C196.117 173.655 192.642 173.322 189.236 172.608L189.162 172.593C188.78 172.517 188.384 172.592 188.056 172.802C187.728 173.012 187.494 173.34 187.403 173.719C187.312 174.098 187.371 174.497 187.568 174.832C187.765 175.168 188.084 175.415 188.459 175.521C189.365 175.772 190.267 176.066 191.193 176.246L191.26 176.261C191.932 176.51 192.495 176.882 192.045 177.563C191.731 178.047 191.214 178.415 190.685 178.765L185.693 180.387C177.551 183.052 170.496 188.293 165.592 195.319L161.184 201.661C160.871 201.943 160.523 202.183 160.148 202.374C157.75 203.544 155.535 201.767 154.661 199.584C153.519 196.743 154.231 193.73 155.976 191.316C155.996 191.286 156.009 191.256 156.028 191.228L157.231 189.497C162.105 182.457 164.558 174.025 164.221 165.469V165.477ZM133.07 189.231C134.565 189.072 136.077 189.221 137.513 189.668C138.948 190.116 140.276 190.854 141.416 191.835L148.856 198.2C149.681 198.901 150.357 199.762 150.842 200.73C151.328 201.698 151.614 202.755 151.683 203.836C151.713 204.317 151.701 204.801 151.646 205.281C151.251 206.51 150.586 207.593 149.285 207.928C147.762 208.318 145.969 207.07 144.626 205.978C137.523 198.856 132.795 195.25 127.328 195.004C126.584 194.818 125.916 194.457 125.902 193.591C125.909 193.206 126.032 192.831 126.255 192.517C128.065 190.649 130.48 189.484 133.07 189.231ZM108.538 231.137C107.15 228.68 106.443 225.898 106.49 223.077C106.538 220.255 107.339 217.498 108.81 215.09C108.83 215.068 108.853 215.051 108.873 215.025C111.252 212.049 113.709 209.499 117.688 209.339C117.753 209.339 117.816 209.339 117.874 209.339C118.919 209.321 119.946 209.598 120.976 209.897C121.484 210.115 121.999 210.286 122.505 210.532C123.006 210.805 123.519 211.026 124.012 211.337C126.006 212.507 127.918 214.004 129.778 215.585C131.638 217.166 133.462 218.833 135.272 220.527L135.96 221.174L136.171 221.448C137.221 222.843 136.623 224.052 135.613 225.129C134.365 226.042 132.904 226.621 131.37 226.812C130.495 226.919 129.609 226.903 128.738 226.766C128.487 226.651 128.212 226.597 127.936 226.606C127.011 226.384 126.124 226.023 125.306 225.536L124.626 225.095L123.865 224.55L122.336 223.472L119.274 221.32C118.953 221.106 118.561 221.024 118.181 221.091C117.801 221.158 117.461 221.368 117.231 221.678C117.001 221.988 116.899 222.375 116.946 222.758C116.993 223.141 117.185 223.492 117.483 223.738L120.439 226.033L121.406 226.777C122.667 227.993 123.937 229.427 123.497 231.267C123.421 231.564 123.319 231.854 123.192 232.134L121.575 234.459C120.667 235.764 120.133 237.293 120.032 238.88C119.931 240.467 120.266 242.052 121.001 243.462C121.737 244.872 122.844 246.054 124.203 246.879C125.562 247.704 127.122 248.142 128.712 248.144C129.169 248.144 129.626 248.109 130.077 248.038C131.242 247.862 132.358 247.448 133.356 246.823C134.355 246.198 135.215 245.374 135.882 244.404L146.828 228.655C147.247 228.177 147.675 227.71 148.13 227.281C149.633 225.858 151.188 226.403 152.764 227.27L153.149 227.642C153.431 227.922 153.814 228.08 154.212 228.079C154.61 228.079 154.992 227.921 155.274 227.64C155.557 227.358 155.716 226.977 155.717 226.578C155.719 226.18 155.562 225.797 155.282 225.514L153.236 223.339C152.273 222.223 151.311 221.063 150.775 219.67C150.195 218.161 150.368 216.649 150.658 215.118C151.25 213.586 152.128 212.159 153.597 211.316C155.295 210.344 156.954 210.729 158.545 211.469L160.715 212.713L164.27 214.759L166.048 215.779L166.931 216.286C167.16 216.443 167.413 216.567 167.627 216.746C168.528 217.399 169.283 218.233 169.845 219.193C170.408 220.154 170.764 221.22 170.893 222.326C170.953 222.876 170.957 223.432 170.906 223.983C170.889 224.264 170.832 224.522 170.793 224.816L170.607 225.823L169.838 229.848L169.074 233.858L168.888 234.855L168.689 235.785C168.533 236.4 168.373 237.014 168.176 237.619C167.398 240.044 166.247 242.334 164.763 244.404C164.023 245.437 163.206 246.413 162.318 247.322C161.878 247.78 161.409 248.208 160.936 248.634L160.206 249.246L159.415 249.882L156.214 252.441L154.614 253.721L153.815 254.361L153.415 254.68L152.937 255.084C151.648 256.254 150.737 257.781 150.32 259.47C150.117 260.312 150.038 261.179 150.087 262.044L150.225 264.105L150.783 272.289L151.436 281.894C151.436 281.944 151.421 281.993 151.421 282.045C151.423 282.182 151.44 282.319 151.473 282.452L151.893 288.64C152.637 299.542 153.415 310.441 154.397 321.326C154.431 321.719 154.618 322.083 154.918 322.339C155.217 322.595 155.606 322.724 155.999 322.698C156.392 322.671 156.76 322.491 157.022 322.197C157.285 321.903 157.421 321.517 157.402 321.123C157.402 320.949 157.386 320.774 157.376 320.601C157.376 320.586 157.376 320.573 157.376 320.556C157.542 317.444 157.668 314.135 159.277 311.371C160.717 308.9 163.131 307.531 165.616 306.301C165.742 306.239 165.856 306.154 165.953 306.052C168.284 304.878 170.612 303.7 172.937 302.518C175.801 301.474 178.818 300.909 181.865 300.844C190.261 302.094 195.146 309.019 197.067 312.419C201.159 319.673 202.379 328.34 200.653 334.856C199.003 339.164 195.289 341.68 191.126 343.987C190.992 344.061 190.872 344.16 190.775 344.279C187.363 346.09 183.766 348.16 180.016 350.318C163.567 359.787 144.924 370.518 131.359 364.722C119.797 359.782 117.329 345.223 117.915 318.549L118.212 312.98C118.233 312.62 118.199 312.259 118.11 311.909C118.341 305.533 118.7 298.543 119.118 290.917C119.191 290.66 119.205 290.39 119.161 290.127C119.302 287.576 119.449 284.956 119.6 282.266C120.015 274.888 120.444 267.256 120.857 258.981C121.036 255.407 120.198 251.856 118.439 248.74L108.538 231.137ZM218.215 413.06C216.009 415.829 213.721 418.701 211.499 421.859C210.974 420.697 210.383 419.568 209.776 418.455C208.897 416.838 207.926 415.271 206.867 413.764C206.651 413.463 206.332 413.251 205.971 413.169C205.609 413.087 205.23 413.14 204.905 413.318C204.58 413.496 204.331 413.787 204.206 414.135C204.08 414.484 204.087 414.867 204.224 415.212C204.924 416.915 205.721 418.577 206.611 420.189C207.463 421.802 208.425 423.356 209.488 424.839C205.658 430.69 202.687 437.061 200.668 443.757C200.419 444.3 200.252 444.876 200.171 445.468C200.039 445.947 199.909 446.432 199.783 446.923C199.411 447.747 198.754 448.474 197.805 447.981C197.29 447.711 196.758 447.064 196.284 446.493C194.246 443.006 192.392 439.414 190.73 435.733C189.828 432.72 188.969 429.595 189.527 426.444C189.812 424.973 190.329 423.557 191.059 422.248C191.803 421.132 192.509 420.002 193.176 418.859L193.784 417.981C193.904 417.814 193.975 417.617 193.991 417.412C199.106 408.004 201.49 397.543 200.43 386.908C199.453 377.091 195.168 371.022 191.387 365.669C190.432 364.318 189.497 362.99 188.628 361.632C187.523 359.361 186.828 356.889 186.8 354.378C186.776 352.197 187.713 350.617 189.075 349.334C197.893 344.433 205.815 340.704 210.978 341.662C216.87 342.755 223.295 347.734 227.742 354.656C233.832 364.132 235.554 375.871 232.595 387.711C229.941 398.339 224.243 405.491 218.213 413.061L218.215 413.06ZM263.508 499.629C261.806 498.807 260.385 497.606 259.47 495.593C258.12 492.617 258.209 489.305 258.268 486.107C258.269 486.033 258.262 485.958 258.25 485.884C258.259 485.531 258.265 485.175 258.278 484.822C258.339 483.209 258.428 481.573 258.564 479.986V479.96C258.604 479.562 258.484 479.165 258.231 478.856C257.978 478.547 257.612 478.351 257.215 478.311C256.817 478.271 256.42 478.391 256.111 478.644C255.802 478.897 255.606 479.263 255.566 479.661C255.371 481.346 255.229 482.984 255.116 484.649C255.015 486.137 254.948 487.614 254.906 489.1L254.749 490.383C254.612 491.516 254.675 493.047 254.247 494.103C253.719 495.417 252.421 495.385 251.053 495.015C246.672 493.105 242.411 490.931 238.294 488.505C236.488 486.928 235.288 485.032 235.067 482.181C234.942 480.566 234.961 478.97 234.881 477.376C235.067 475.223 235.396 473.063 235.738 470.906C236.188 468.173 236.806 465.458 237.485 462.757C238.164 460.056 238.936 457.352 239.793 454.748L239.804 454.714C239.928 454.34 239.9 453.932 239.727 453.578C239.553 453.224 239.248 452.952 238.876 452.82C238.505 452.689 238.096 452.708 237.739 452.875C237.381 453.041 237.103 453.341 236.964 453.71C235.928 456.429 235.054 459.126 234.273 461.894C233.491 464.661 232.785 467.433 232.241 470.264C232.085 470.967 231.979 471.681 231.851 472.392C231.771 472.855 231.697 473.32 231.628 473.787C231.395 474.812 231.194 475.844 231.045 476.897C230.876 478.1 230.781 479.964 229.779 480.831C229.104 481.415 228.33 481.519 227.547 481.375C220.03 475.774 213.206 469.298 207.219 462.085C204.142 457.679 202.813 452.287 203.488 446.956C206.004 437.567 209.791 430.614 213.976 424.584C215.234 423.053 216.934 420.946 218.762 420.925C219.746 420.914 220.514 421.642 221.258 422.451C234.319 442.873 261.226 450.351 283.611 450.351H283.7C301.162 450.336 316.565 446.054 325.48 439.287C325.98 439.006 326.495 438.75 327.021 438.521C329.482 437.47 330.976 438.24 332.116 439.667C333.449 442.912 335.034 446.047 336.857 449.045C345.324 462.93 347.831 476.043 348.48 484.404C348.519 485.436 348.557 486.474 348.516 487.523C348.365 491.299 346.129 493.465 343.308 495.352C335.96 498.5 328.305 500.875 320.465 502.436C320.25 502.372 320.02 502.372 319.805 502.436C317.697 503.013 314.749 503.861 313.204 501.752C312.46 500.746 312.035 499.399 311.727 498.032C311.613 497.016 311.483 496.003 311.329 494.994C311.053 493.209 310.737 491.429 310.339 489.665C309.941 487.902 309.471 486.156 308.966 484.422C308.857 484.044 308.603 483.724 308.26 483.53C307.917 483.337 307.512 483.285 307.132 483.386C306.751 483.488 306.425 483.734 306.224 484.073C306.023 484.411 305.963 484.815 306.056 485.198V485.228C306.884 488.596 307.5 492.012 307.903 495.458C308.111 497.178 308.232 498.906 308.334 500.63V500.66C308.334 500.911 308.314 501.162 308.288 501.415C308.102 503.175 307.067 504.001 305.743 504.391C302.99 504.577 300.221 504.689 297.431 504.689C285.934 504.696 274.499 502.991 263.504 499.631L263.508 499.629ZM391.552 318.255C390.18 319.2 388.859 320.21 387.559 321.246C385.899 322.551 384.319 323.954 382.827 325.448C382.569 325.714 382.417 326.065 382.4 326.435C382.383 326.806 382.502 327.17 382.734 327.458C382.967 327.747 383.297 327.94 383.663 328.002C384.029 328.064 384.404 327.989 384.719 327.793C386.495 326.651 388.2 325.404 389.826 324.057C391.065 323.045 392.285 322.011 393.457 320.915C407.109 340.523 414.428 363.842 414.428 387.734C414.428 429.614 392.527 467.582 356.78 488.577C355.431 489.055 354.079 489.266 353.311 488.391C352.803 487.811 352.515 487.032 352.264 486.226C352.21 485.042 352.122 483.747 351.983 482.346C353.19 481.057 354.306 479.698 355.385 478.308C356.676 476.66 357.884 474.948 359.004 473.178C359.208 472.861 359.285 472.479 359.222 472.107C359.159 471.735 358.959 471.4 358.662 471.167C358.365 470.935 357.991 470.821 357.615 470.849C357.239 470.877 356.887 471.045 356.627 471.318C355.184 472.836 353.818 474.425 352.535 476.08C352.137 476.588 351.745 477.102 351.36 477.62C350 469.28 346.87 458.536 339.948 447.185C326.047 424.392 327.287 393.892 342.951 364.277C343.611 364.938 344.295 365.568 344.996 366.182C346.24 367.286 347.552 368.309 348.925 369.247C349.231 369.454 349.601 369.542 349.967 369.495C350.333 369.448 350.67 369.269 350.914 368.993C351.158 368.716 351.293 368.36 351.294 367.991C351.295 367.622 351.162 367.265 350.919 366.987C349.816 365.743 348.636 364.569 347.385 363.474C346.496 362.687 345.586 361.923 344.624 361.218C345.465 359.724 346.332 358.236 347.262 356.748C358.829 337.979 352.364 325.4 346.663 314.301C343.025 307.222 339.595 300.537 340.391 292.522C340.503 291.524 340.725 290.541 341.053 289.591C342.551 286.336 344.74 283.005 348.769 283.503C350.113 283.669 351.387 284.124 352.662 284.584C367.964 292.782 381.248 304.285 391.55 318.257L391.552 318.255ZM336.788 292.152C335.881 301.227 339.725 308.706 343.443 315.943C349.221 327.187 354.678 337.806 344.187 354.84C329.78 378.22 324.198 402.664 327.734 424.143C327.92 426.319 327.955 428.533 327.388 430.611C326.913 432.291 326.066 433.843 324.908 435.151C317.149 442.107 301.396 446.748 283.709 446.765H283.622C262.293 446.765 236.713 439.756 224.396 420.645C223.403 418.444 222.555 416.063 223.189 413.658C223.439 412.776 223.819 411.936 224.316 411.166C229.323 404.682 233.767 397.973 236.112 388.593C239.317 375.774 237.427 363.029 230.794 352.704C228.482 349.081 225.578 345.87 222.203 343.207C221.414 342.138 219.785 341.025 219.863 339.714C219.928 338.598 220.979 338.168 222.104 337.873C222.889 337.834 223.678 337.813 224.402 337.826H224.47C224.86 337.823 225.233 337.669 225.511 337.397C225.79 337.125 225.952 336.755 225.964 336.366C225.976 335.977 225.837 335.598 225.576 335.309C225.315 335.02 224.952 334.844 224.563 334.817C222.277 334.722 219.987 334.792 217.711 335.025C215.456 335.24 213.215 335.589 211 336.069C209.326 336.424 207.671 336.848 206.034 337.356C205.342 337.417 204.71 337.356 204.466 336.984C204.176 336.532 204.42 335.786 204.516 335.31C204.677 334.646 204.751 333.965 204.736 333.282C204.736 333.243 204.723 333.208 204.719 333.171C205.809 326.192 204.315 317.87 200.236 310.646C196.676 304.341 191.818 300.092 186.219 298.184C186.141 298.115 186.058 298.049 185.972 297.989C185.228 297.479 184.629 297.271 185.388 296.333C185.444 296.265 185.507 296.205 185.574 296.147C190.873 293.491 196.191 290.889 201.57 288.451C208.452 285.354 215.459 282.448 222.635 280.453C223.879 280.166 225.164 279.895 226.325 279.915C227.532 279.947 228.328 280.633 229.042 281.459C236.787 292.745 249.446 301.833 265.924 307.871C279.485 312.846 290.694 314.022 291.164 314.068C291.226 314.075 291.288 314.078 291.35 314.078C291.659 314.078 291.962 313.999 292.231 313.848C292.5 313.698 292.727 313.481 292.889 313.218C308.927 287.223 302.763 262.128 300.143 254.188C299.906 252.941 299.858 251.695 300.349 250.432C300.623 249.76 300.987 249.128 301.432 248.554C305.613 244.052 310.41 239.423 318.837 234.663C321.927 232.918 325.104 231.146 328.71 229.189C330.951 228.224 333.343 227.658 335.778 227.515C341.358 228.445 347.708 233.378 352.622 240.796C357.008 247.415 359.105 254.327 358.556 259.671C358.082 261.711 357.086 263.593 355.667 265.134C354.488 266.436 353.249 267.658 352.152 269.012C342.482 278.202 337.413 285.863 336.785 292.154L336.788 292.152ZM467.591 192.882L467.531 192.914C436.884 210.509 405.115 229.184 380.377 246.558C374.211 250.888 368.708 254.986 363.87 258.852C363.368 259.065 362.866 259.198 362.596 258.998C362.326 258.797 362.356 258.157 362.313 257.882C362.3 257.792 362.281 257.71 362.265 257.625C362.157 251.15 359.16 244.157 355.615 238.804C352.07 233.45 346.754 227.908 340.826 225.291C340.168 224.829 339.614 224.251 340.227 223.457C340.426 223.207 340.639 222.971 340.867 222.748C359.259 213.249 388.939 198.789 449.305 170.566C450.101 170.191 450.726 169.53 451.056 168.716C451.387 167.901 451.399 166.992 451.091 166.169L442.472 143.501C442.083 142.423 442.116 141.237 442.564 140.182C443.012 139.128 443.842 138.281 444.887 137.812C445.933 137.343 447.117 137.286 448.203 137.653C449.289 138.019 450.196 138.783 450.743 139.79L459.284 156.234C459.457 156.567 459.729 156.838 460.062 157.009C460.395 157.18 460.773 157.244 461.144 157.19C461.552 157.129 471.212 155.821 473.124 165.285C473.171 165.518 473.264 165.739 473.396 165.936C473.529 166.133 473.699 166.302 473.897 166.434C474.095 166.565 474.316 166.656 474.55 166.702C474.783 166.747 475.022 166.747 475.255 166.7C475.488 166.653 475.709 166.56 475.906 166.428C476.103 166.295 476.272 166.125 476.404 165.927C476.535 165.729 476.626 165.508 476.672 165.275C476.717 165.042 476.717 164.802 476.67 164.569C475.295 157.765 470.703 154.867 466.415 153.887C464.267 152.97 462.119 151.811 461.393 149.78C461.068 148.835 460.816 147.867 460.638 146.884L459.318 131.087L458.414 120.595L458.3 119.284C458.254 118.804 458.244 118.497 458.228 118.168C458.242 116.853 458.741 115.59 459.63 114.621C460.518 113.652 461.733 113.046 463.042 112.919C464.35 112.791 465.66 113.152 466.718 113.931C467.777 114.711 468.51 115.854 468.778 117.141L468.854 117.61L468.915 118.264L469.038 119.566L469.529 124.802C470.188 131.783 470.868 138.762 471.761 145.724C471.816 146.106 472.017 146.453 472.32 146.692C472.623 146.931 473.007 147.045 473.392 147.009C473.777 146.974 474.133 146.792 474.388 146.502C474.643 146.212 474.776 145.834 474.761 145.448C474.371 138.434 473.77 131.439 473.147 124.445L472.678 119.2L472.561 117.898L472.503 117.243L472.375 116.412C472.155 115.328 471.739 114.294 471.145 113.361C471.088 113.272 471.023 113.188 470.959 113.099C470.338 111.673 469.639 110.075 469.756 108.678C469.873 107.281 471.222 106.652 472.589 106.243C472.654 106.243 472.717 106.243 472.775 106.243L473.089 106.26L473.519 106.308L474.378 106.405L475.23 106.502C475.428 106.528 475.623 106.566 475.816 106.617C476.588 106.824 477.284 107.251 477.818 107.845C478.353 108.439 478.704 109.175 478.829 109.965L479.424 116.721L480.643 130.501C481.07 135.094 481.521 139.682 482.08 144.265C482.133 144.648 482.331 144.996 482.632 145.237C482.934 145.478 483.316 145.595 483.701 145.562C484.086 145.53 484.444 145.351 484.701 145.063C484.958 144.774 485.094 144.398 485.082 144.012C484.872 139.403 484.55 134.802 484.206 130.204L483.806 125.167C483.754 123.932 483.751 122.695 483.806 121.458C483.84 120.801 483.806 119.715 484.044 119.113C484.63 117.665 485.828 117.825 486.909 118.276C487.761 118.803 488.478 119.522 489.003 120.376C489.528 121.23 489.846 122.195 489.931 123.193L492.619 155.245C490.415 180.532 467.816 192.759 467.591 192.882Z" fill="black"/>
<path d="M392.261 354.888C393.033 356.853 393.923 358.77 394.926 360.628C395.107 360.952 395.4 361.198 395.75 361.321C396.099 361.444 396.482 361.434 396.825 361.294C397.169 361.154 397.449 360.893 397.613 360.561C397.777 360.228 397.814 359.847 397.716 359.489C397.132 357.461 396.427 355.469 395.603 353.524C394.794 351.579 393.942 349.65 392.938 347.785C392.76 347.457 392.467 347.206 392.116 347.081C391.764 346.955 391.379 346.964 391.034 347.105C390.688 347.246 390.407 347.509 390.243 347.845C390.08 348.18 390.046 348.564 390.148 348.923C390.738 350.963 391.478 352.937 392.261 354.888Z" fill="black"/>
<path d="M363.678 350.444C363.851 350.544 364.042 350.609 364.24 350.635C364.437 350.66 364.638 350.647 364.831 350.595C365.023 350.543 365.204 350.454 365.362 350.333C365.52 350.211 365.653 350.059 365.752 349.886C366.79 348.048 367.716 346.148 368.525 344.199C369.346 342.259 370.125 340.293 370.757 338.274C370.867 337.918 370.84 337.533 370.683 337.194C370.527 336.855 370.25 336.586 369.908 336.439C369.565 336.291 369.179 336.275 368.826 336.394C368.472 336.512 368.174 336.758 367.99 337.082C366.95 338.929 366.063 340.841 365.216 342.77C364.354 344.698 363.609 346.676 362.985 348.694C362.887 349.021 362.902 349.372 363.028 349.69C363.154 350.007 363.383 350.273 363.678 350.444Z" fill="black"/>
<path d="M223.265 376.375C222.915 376.177 222.501 376.127 222.113 376.235C221.726 376.344 221.398 376.601 221.2 376.951C220.161 378.798 219.273 380.71 218.427 382.639C217.565 384.567 216.82 386.546 216.195 388.563C216.09 388.919 216.12 389.301 216.277 389.637C216.435 389.973 216.71 390.239 217.051 390.386C217.391 390.533 217.774 390.55 218.126 390.434C218.479 390.317 218.776 390.076 218.963 389.756C220.001 387.917 220.927 386.018 221.736 384.068C222.556 382.128 223.336 380.162 223.968 378.144C224.071 377.813 224.057 377.457 223.929 377.135C223.801 376.813 223.567 376.545 223.265 376.375Z" fill="black"/>
<path d="M357.161 306.446C357.62 308.507 358.204 310.538 358.907 312.528C359.035 312.877 359.286 313.167 359.613 313.343C359.94 313.519 360.321 313.569 360.682 313.484C361.043 313.398 361.361 313.183 361.574 312.879C361.788 312.575 361.883 312.204 361.841 311.835C361.577 309.74 361.188 307.663 360.674 305.615C360.176 303.569 359.633 301.523 358.928 299.533C358.803 299.18 358.553 298.886 358.225 298.707C357.896 298.529 357.514 298.477 357.15 298.563C356.786 298.649 356.467 298.867 356.254 299.174C356.041 299.481 355.948 299.855 355.995 300.226C356.263 302.328 356.69 304.393 357.161 306.446Z" fill="black"/>
<path d="M389.986 391.061C392.103 391.141 394.21 391.061 396.31 390.924C398.418 390.806 400.517 390.561 402.595 390.191C402.959 390.121 403.284 389.92 403.51 389.626C403.736 389.332 403.847 388.966 403.821 388.597C403.796 388.227 403.636 387.88 403.372 387.619C403.108 387.359 402.759 387.205 402.389 387.185C400.28 387.104 398.168 387.15 396.065 387.323C393.963 387.481 391.865 387.695 389.78 388.056C389.413 388.122 389.084 388.322 388.855 388.616C388.626 388.911 388.514 389.279 388.539 389.651C388.565 390.023 388.727 390.372 388.994 390.632C389.26 390.892 389.614 391.045 389.986 391.061Z" fill="black"/>
<path d="M366.909 382.176C366.719 382.495 366.652 382.872 366.721 383.237C366.79 383.601 366.99 383.928 367.284 384.155C367.577 384.382 367.944 384.494 368.315 384.469C368.685 384.444 369.033 384.284 369.294 384.019C370.757 382.497 372.127 380.887 373.397 379.2C374.675 377.526 375.915 375.82 377.028 374.016C377.223 373.697 377.293 373.318 377.226 372.951C377.158 372.583 376.957 372.254 376.662 372.025C376.366 371.797 375.997 371.686 375.624 371.713C375.252 371.74 374.902 371.904 374.643 372.173C373.177 373.702 371.84 375.335 370.54 376.992C369.227 378.646 368.014 380.377 366.909 382.176Z" fill="black"/>
<path d="M354.674 440.312C353.978 438.324 353.238 436.35 352.343 434.429C352.185 434.091 351.907 433.823 351.563 433.677C351.219 433.531 350.833 433.517 350.48 433.638C350.126 433.759 349.83 434.007 349.648 434.333C349.465 434.659 349.41 435.041 349.492 435.405C349.963 437.472 350.589 439.484 351.259 441.482C351.916 443.489 352.693 445.454 353.586 447.367C353.747 447.702 354.025 447.965 354.368 448.108C354.71 448.252 355.094 448.264 355.445 448.144C355.796 448.024 356.091 447.779 356.274 447.456C356.457 447.133 356.515 446.754 356.437 446.391C355.972 444.331 355.383 442.301 354.674 440.312Z" fill="black"/>
<path d="M399.37 411.789C399.019 411.592 398.605 411.542 398.218 411.65C397.831 411.758 397.503 412.015 397.305 412.366C396.265 414.213 395.378 416.125 394.532 418.054C393.67 419.982 392.924 421.96 392.3 423.978C392.195 424.333 392.224 424.715 392.382 425.051C392.54 425.387 392.815 425.654 393.155 425.8C393.496 425.947 393.879 425.964 394.231 425.848C394.583 425.732 394.881 425.491 395.068 425.17C396.105 423.331 397.031 421.432 397.841 419.482C398.661 417.542 399.44 415.576 400.073 413.558C400.175 413.227 400.161 412.871 400.033 412.549C399.906 412.228 399.671 411.959 399.37 411.789Z" fill="black"/>
<path d="M365.862 415.822C365.508 415.938 365.208 416.18 365.021 416.503C364.834 416.826 364.773 417.206 364.849 417.571C364.925 417.936 365.133 418.261 365.433 418.482C365.733 418.704 366.104 418.807 366.476 418.772C368.585 418.561 370.659 418.191 372.725 417.775C374.798 417.371 376.844 416.843 378.852 416.194C379.203 416.075 379.499 415.831 379.683 415.51C379.867 415.188 379.927 414.81 379.851 414.447C379.776 414.084 379.57 413.761 379.273 413.54C378.976 413.318 378.608 413.213 378.239 413.244C376.137 413.45 374.05 413.783 371.989 414.241C369.926 414.683 367.876 415.171 365.862 415.822Z" fill="black"/>
<path d="M373.505 443.082C373.246 443.39 373.121 443.788 373.155 444.189C373.19 444.59 373.383 444.96 373.691 445.219C375.322 446.561 377.033 447.803 378.813 448.939C380.582 450.083 382.377 451.19 384.263 452.157C384.596 452.327 384.98 452.369 385.341 452.273C385.703 452.177 386.016 451.952 386.221 451.639C386.426 451.326 386.509 450.949 386.452 450.579C386.396 450.21 386.205 449.874 385.917 449.636C384.278 448.293 382.548 447.086 380.794 445.916C379.044 444.735 377.224 443.661 375.344 442.699C375.039 442.547 374.692 442.502 374.358 442.572C374.025 442.641 373.724 442.821 373.505 443.082Z" fill="black"/>
<path d="M343.034 396.132C342.678 396.03 342.296 396.062 341.962 396.222C341.628 396.382 341.363 396.658 341.219 397C341.075 397.341 341.06 397.723 341.178 398.075C341.296 398.426 341.539 398.722 341.86 398.907C343.706 399.932 345.612 400.845 347.567 401.641C349.513 402.448 351.473 403.213 353.506 403.826C353.863 403.933 354.248 403.903 354.585 403.744C354.922 403.585 355.189 403.307 355.334 402.964C355.479 402.62 355.493 402.235 355.372 401.883C355.251 401.53 355.005 401.234 354.68 401.051C352.82 400.025 350.908 399.148 348.973 398.317C347.039 397.47 345.056 396.74 343.034 396.132Z" fill="black"/>
<path d="M214.183 353.727C212.124 354.226 210.119 354.879 208.13 355.574C206.133 356.259 204.179 357.063 202.279 357.983C201.946 358.149 201.686 358.43 201.548 358.775C201.409 359.119 201.401 359.502 201.526 359.852C201.651 360.201 201.9 360.493 202.225 360.672C202.551 360.851 202.93 360.904 203.292 360.821C205.345 360.328 207.366 359.711 209.345 358.974C211.324 358.253 213.288 357.486 215.196 356.566C215.533 356.403 215.797 356.121 215.938 355.775C216.079 355.43 216.088 355.044 215.962 354.692C215.837 354.34 215.586 354.047 215.257 353.869C214.929 353.691 214.546 353.64 214.183 353.727Z" fill="black"/>
<path d="M379.641 121.906C381.067 120.746 382.429 119.51 383.724 118.205C385.046 116.926 386.27 115.549 387.386 114.087C387.602 113.792 387.705 113.43 387.676 113.066C387.647 112.702 387.488 112.361 387.228 112.104C386.968 111.847 386.624 111.693 386.26 111.669C385.896 111.645 385.535 111.752 385.243 111.972C383.791 113.102 382.427 114.339 381.16 115.673C379.868 116.978 378.646 118.35 377.5 119.784C377.273 120.077 377.161 120.443 377.185 120.813C377.209 121.183 377.368 121.531 377.632 121.792C377.895 122.053 378.245 122.208 378.615 122.229C378.985 122.25 379.35 122.134 379.641 121.904V121.906Z" fill="black"/>
<path d="M323.082 152.163C324.27 150.991 325.448 149.813 326.616 148.629C327.778 147.433 328.958 146.254 330.105 145.045C330.875 144.243 331.636 143.434 332.404 142.627C333.072 142.223 333.749 141.987 334.181 142.418C334.553 142.79 334.692 143.653 334.865 144.137L334.902 144.243L335.55 148.878C336.121 152.899 336.666 156.924 337.255 160.942V160.955C337.307 161.306 337.456 161.635 337.685 161.906C337.914 162.177 338.213 162.379 338.55 162.489C338.887 162.599 339.248 162.613 339.593 162.529C339.937 162.446 340.252 162.268 340.501 162.015L355.567 146.75L363.046 139.065C365.514 136.477 367.982 133.892 370.397 131.253C370.655 130.964 370.793 130.588 370.781 130.201C370.77 129.814 370.61 129.446 370.335 129.174C370.06 128.902 369.691 128.745 369.304 128.738C368.917 128.73 368.542 128.871 368.256 129.132C365.641 131.573 363.078 134.067 360.516 136.559L352.903 144.113L342.498 154.585C341.691 155.26 340.737 155.356 340.266 154.201C340.187 154.006 340.114 153.805 340.047 153.601C339.785 151.849 339.525 150.096 339.266 148.342L337.478 136.29V136.277C337.428 135.937 337.282 135.619 337.059 135.358C336.835 135.097 336.543 134.905 336.215 134.803C335.888 134.701 335.538 134.693 335.206 134.781C334.874 134.868 334.573 135.048 334.339 135.298C332.057 137.727 329.793 140.175 327.546 142.64C326.411 143.862 325.314 145.113 324.198 146.348C323.082 147.584 321.981 148.841 320.887 150.1C320.64 150.395 320.515 150.774 320.538 151.158C320.561 151.543 320.73 151.904 321.011 152.168C321.291 152.432 321.662 152.578 322.047 152.577C322.432 152.576 322.803 152.428 323.082 152.163Z" fill="black"/>
<path d="M302.646 169.1C300.63 171.287 298.586 173.447 296.596 175.657C294.605 177.866 292.602 180.067 290.653 182.315C290.402 182.61 290.274 182.991 290.296 183.377C290.317 183.764 290.487 184.128 290.769 184.393C291.051 184.658 291.425 184.804 291.812 184.802C292.2 184.799 292.571 184.647 292.85 184.378C294.97 182.289 297.048 180.161 299.116 178.024C301.184 175.887 303.219 173.718 305.274 171.568C307.33 169.418 309.327 167.216 311.34 165.025L314.329 161.712C315.311 160.596 316.304 159.48 317.269 158.355C317.521 158.06 317.649 157.68 317.627 157.293C317.605 156.906 317.436 156.543 317.153 156.277C316.871 156.012 316.498 155.866 316.11 155.869C315.723 155.871 315.351 156.023 315.073 156.292C314.003 157.328 312.962 158.39 311.911 159.439L308.795 162.633C306.736 164.779 304.686 166.935 302.646 169.1Z" fill="black"/>
<path d="M368.544 182.769C368.639 183.16 368.885 183.497 369.228 183.706C369.571 183.916 369.984 183.98 370.374 183.885C372.575 183.327 374.741 182.644 376.864 181.839C378.988 181.051 381.097 180.219 383.151 179.235C383.491 179.073 383.758 178.791 383.901 178.442C384.044 178.094 384.052 177.704 383.923 177.35C383.794 176.997 383.538 176.703 383.205 176.528C382.871 176.353 382.485 176.308 382.12 176.402C379.914 176.96 377.764 177.684 375.631 178.448C373.487 179.196 371.388 180.066 369.344 181.052C369.036 181.206 368.789 181.459 368.643 181.771C368.498 182.083 368.463 182.435 368.544 182.769Z" fill="black"/>
<path d="M283.985 146.345C284.371 146.449 284.782 146.396 285.129 146.196C285.476 145.997 285.729 145.669 285.834 145.283C286.578 142.529 287.296 139.768 287.989 137.002L288.19 136.195C288.41 135.786 288.627 135.374 288.85 134.967C289.47 133.829 290.361 134.072 291.114 134.943L291.389 135.295L291.484 135.414C291.867 135.94 292.191 136.459 292.626 136.859C293.756 138.287 294.89 139.713 296.028 141.137C296.242 141.406 296.527 141.611 296.851 141.728C297.174 141.845 297.524 141.87 297.861 141.8C298.198 141.73 298.509 141.568 298.759 141.332C299.01 141.096 299.19 140.796 299.279 140.463C300.174 137.162 301.072 133.862 301.93 130.552C302.787 127.241 303.641 123.93 304.489 120.615C305.337 117.301 306.152 113.981 306.976 110.661C307.8 107.341 308.568 104.007 309.303 100.665C309.385 100.285 309.316 99.8881 309.113 99.5571C308.909 99.2261 308.585 98.9866 308.209 98.8885C307.833 98.7904 307.433 98.8413 307.094 99.0305C306.754 99.2198 306.501 99.5328 306.386 99.9043C305.393 103.18 304.461 106.47 303.533 109.762C302.605 113.054 301.709 116.354 300.838 119.663C299.968 122.972 299.066 126.27 298.217 129.582C297.99 130.449 297.771 131.316 297.548 132.186C297.321 132.677 297.085 133.163 296.815 133.624C296.177 134.716 295.353 134.165 294.711 133.459L294.339 132.981L289.689 127.151L289.676 127.135C289.46 126.866 289.173 126.663 288.847 126.55C288.522 126.438 288.171 126.419 287.835 126.497C287.499 126.574 287.192 126.745 286.949 126.99C286.705 127.234 286.536 127.542 286.46 127.879C285.83 130.669 285.227 133.448 284.625 136.234C284.022 139.02 283.455 141.814 282.908 144.617C282.84 144.987 282.913 145.37 283.112 145.689C283.311 146.009 283.622 146.243 283.985 146.345Z" fill="black"/>
<path d="M278.87 167.792C279.057 167.861 279.256 167.891 279.455 167.882C279.654 167.874 279.85 167.826 280.031 167.742C280.211 167.657 280.374 167.538 280.508 167.391C280.643 167.244 280.747 167.072 280.815 166.885C281.432 165.131 281.949 163.345 282.365 161.533C282.813 159.729 283.137 157.897 283.334 156.048C283.37 155.681 283.271 155.314 283.056 155.014C282.841 154.714 282.525 154.503 282.166 154.419C281.806 154.336 281.429 154.386 281.104 154.56C280.779 154.734 280.528 155.02 280.399 155.366C279.76 157.112 279.242 158.9 278.849 160.717C278.423 162.526 278.1 164.357 277.88 166.202C277.844 166.54 277.922 166.88 278.101 167.168C278.28 167.456 278.551 167.676 278.87 167.792Z" fill="black"/>
<path d="M185.381 134.292C187.038 132.159 188.65 129.995 190.256 127.825C190.358 127.767 190.448 127.69 190.52 127.596C191.037 126.93 191.625 126.052 192.59 126.244C192.958 126.325 193.319 126.439 193.667 126.584L195.203 127.587C195.785 127.94 196.355 128.308 196.946 128.647C197.272 128.834 197.656 128.894 198.023 128.814C198.391 128.734 198.715 128.52 198.934 128.214C199.152 127.908 199.249 127.531 199.205 127.158C199.161 126.784 198.98 126.441 198.696 126.193C198.185 125.743 197.649 125.327 197.126 124.891L195.519 123.642C195.421 123.565 195.319 123.491 195.22 123.417C194.937 123.065 194.78 122.629 194.774 122.178C194.799 121.861 194.886 121.552 195.03 121.268C195.296 120.896 195.562 120.524 195.83 120.152C197.126 118.321 198.417 116.486 199.704 114.647C200.432 113.834 201.222 113.412 202.338 114.275C202.659 114.534 203.006 114.761 203.372 114.95L208.378 118.556C208.947 119.207 209.349 119.884 209.019 120.902C208.846 121.394 208.624 121.869 208.357 122.317L205.772 125.801C203.999 128.219 202.251 130.648 200.502 133.081C198.784 135.534 197.037 137.969 195.343 140.439C193.648 142.909 191.95 145.378 190.31 147.879C190.099 148.205 190.022 148.6 190.095 148.981C190.168 149.362 190.385 149.7 190.701 149.925C191.017 150.151 191.407 150.246 191.791 150.191C192.175 150.136 192.523 149.935 192.763 149.629C194.601 147.262 196.388 144.857 198.157 142.444C199.822 140.199 201.442 137.923 203.08 135.659C203.927 134.975 204.812 134.603 205.935 135.272C206.419 135.644 206.901 136.016 207.388 136.377C208.897 137.521 210.431 138.626 211.967 139.725L212.881 140.369C212.926 140.437 212.967 140.507 213.003 140.581C213.149 140.88 213.024 141.349 212.793 141.851C211.958 143.075 211.119 144.299 210.299 145.532C210.067 145.857 209.974 146.261 210.039 146.656C210.105 147.05 210.325 147.402 210.651 147.634C210.976 147.866 211.38 147.959 211.774 147.893C212.168 147.827 212.52 147.608 212.752 147.282C213.574 146.202 214.384 145.113 215.195 144.025C215.313 143.923 215.437 143.828 215.567 143.741C216.227 143.328 216.941 143.397 217.629 143.642L218.978 144.546C219.778 145.054 220.564 145.58 221.373 146.073C221.699 146.274 222.09 146.343 222.465 146.267C222.84 146.191 223.172 145.976 223.395 145.664C223.617 145.353 223.713 144.968 223.662 144.589C223.612 144.209 223.42 143.863 223.124 143.62C222.566 143.162 222.008 142.723 221.45 142.281C221.397 142.132 221.301 142.002 221.174 141.909C220.548 141.423 219.919 140.867 219.515 140.175C219.054 139.385 219.259 138.711 219.631 138.018L219.804 137.783C220.965 136.2 222.118 134.61 223.261 133.014C223.669 132.456 224.158 131.783 224.792 131.493C225.657 131.098 226.466 131.513 227.229 131.853C229.515 133.436 231.809 135.006 234.111 136.565C234.436 136.797 234.84 136.89 235.234 136.824C235.629 136.758 235.98 136.539 236.213 136.213C236.445 135.888 236.538 135.484 236.472 135.09C236.406 134.695 236.186 134.344 235.861 134.112C233.422 132.271 230.969 130.451 228.503 128.651C227.785 127.737 228.049 126.683 228.549 125.613L232.686 119.784C233.501 118.954 234.501 118.445 235.794 118.969C236.017 119.059 236.226 119.155 236.428 119.258C238.8 120.901 241.182 122.531 243.573 124.149C243.898 124.381 244.302 124.475 244.696 124.409C245.09 124.343 245.442 124.123 245.674 123.798C245.906 123.472 246 123.068 245.934 122.674C245.868 122.28 245.648 121.928 245.323 121.696C242.776 119.773 240.21 117.881 237.635 115.995C237.346 115.747 237.119 115.434 236.973 115.082C236.72 114.396 236.996 113.694 237.345 113.062C238.314 111.632 239.293 110.207 240.245 108.765C240.455 108.439 240.532 108.045 240.459 107.664C240.387 107.283 240.17 106.944 239.854 106.719C239.538 106.494 239.147 106.399 238.763 106.454C238.379 106.509 238.031 106.71 237.792 107.015C237.048 107.98 236.32 108.955 235.591 109.932C235.571 109.95 235.55 109.967 235.53 109.989C235.322 110.241 235.13 110.505 234.955 110.782L234.36 111.563C234.245 111.694 234.114 111.811 233.971 111.911C233.365 112.312 232.597 112.117 231.89 111.827L225.566 107.264C224.759 106.388 224.863 105.443 225.3 104.417C226.315 103.036 227.322 101.651 228.321 100.26C228.362 100.217 228.399 100.171 228.432 100.122L228.594 99.8819L229.251 98.9705C229.717 98.3976 230.268 97.9196 231.025 97.7299C231.539 97.6079 232.076 97.6143 232.587 97.7485C234.667 99.2198 236.748 100.691 238.841 102.144C242.003 104.344 245.185 106.537 248.397 108.678C248.723 108.91 249.127 109.003 249.521 108.937C249.915 108.871 250.267 108.652 250.499 108.326C250.731 108.001 250.825 107.597 250.759 107.203C250.693 106.808 250.473 106.457 250.148 106.225C248.844 105.233 247.535 104.249 246.219 103.273C246.039 103.007 245.912 102.708 245.847 102.393C245.736 101.632 246.344 100.834 246.748 100.144C247.569 99.0161 248.298 97.823 248.926 96.5767C249.085 96.2518 249.124 95.8807 249.036 95.5296C248.947 95.1785 248.737 94.8704 248.442 94.6601C248.147 94.4498 247.787 94.3511 247.427 94.3816C247.066 94.412 246.728 94.5697 246.472 94.8265C245.463 95.8645 244.541 96.9843 243.716 98.1745C243.533 98.4349 243.353 98.6971 243.174 98.9612C242.867 99.239 242.482 99.4178 242.072 99.4746C241.552 99.497 241.037 99.3746 240.584 99.1212C238.931 97.9122 237.272 96.7106 235.608 95.5165C235.244 95.2076 234.901 94.8751 234.581 94.5214C233.441 93.1525 234.602 91.4878 235.42 90.275C235.454 90.2239 235.484 90.1698 235.508 90.1132C235.714 89.8175 235.922 89.5236 236.129 89.2279L238.861 85.2512C239.754 83.912 240.663 82.5858 241.54 81.2354C241.75 80.9095 241.827 80.515 241.754 80.1339C241.681 79.7529 241.464 79.4145 241.148 79.1892C240.833 78.9639 240.442 78.8689 240.058 78.924C239.674 78.9791 239.326 79.1801 239.086 79.4852C238.095 80.7537 237.137 82.0464 236.162 83.3261L233.29 87.2042C232.98 87.6283 232.673 88.0542 232.36 88.4783C231.907 88.9935 231.449 89.5087 230.956 89.9663C230.168 90.7103 229.046 90.4443 228.021 90.1076L222 85.8668H221.987C221.734 85.5516 221.542 85.1921 221.42 84.8066C221.286 84.3323 221.662 83.8283 221.978 83.3298L223.012 81.7879C223.553 80.9416 224.109 80.1139 224.636 79.2527C224.837 78.9267 224.906 78.5366 224.83 78.1614C224.754 77.7862 224.539 77.4538 224.227 77.2314C223.915 77.0091 223.531 76.9134 223.151 76.9637C222.772 77.014 222.426 77.2066 222.183 77.5024C221.543 78.278 220.936 79.076 220.323 79.8628L218.81 81.8604C218.504 82.1169 218.13 82.2782 217.733 82.3244C217.337 82.3707 216.935 82.2999 216.578 82.1208L215.914 81.6707L215.873 81.6428C214.739 80.8709 213.604 80.099 212.458 79.3401C212.133 79.1296 211.738 79.0529 211.357 79.1257C210.976 79.1986 210.638 79.4154 210.412 79.7313C210.187 80.0471 210.092 80.4376 210.147 80.8217C210.202 81.2057 210.403 81.5537 210.708 81.7934C211.755 82.5988 212.814 83.3875 213.87 84.178C214.203 84.5946 214.588 84.9685 214.845 85.493C215.167 86.1496 215.018 86.8303 214.713 87.4739C213.649 88.9991 212.566 90.5131 211.528 92.0569C211.107 92.6769 210.689 93.2969 210.275 93.9169C210.089 94.0457 209.891 94.156 209.683 94.2461C208.675 94.6702 207.71 94.421 206.784 94.0118L206.514 93.8258L200.873 89.983C200.547 89.7509 200.143 89.6576 199.749 89.7235C199.355 89.7894 199.003 90.0092 198.771 90.3346C198.539 90.6599 198.445 91.0641 198.511 91.4583C198.577 91.8524 198.797 92.2043 199.122 92.4364L204.593 96.5284L210.1 100.559L217.242 105.707C217.484 105.942 217.746 106.171 218.009 106.451C218.231 106.677 218.392 106.954 218.48 107.258C218.567 107.563 218.576 107.884 218.507 108.192C217.899 109.095 217.289 109.995 216.69 110.904C216.48 111.23 216.403 111.625 216.476 112.006C216.548 112.387 216.765 112.725 217.081 112.951C217.397 113.176 217.787 113.271 218.172 113.216C218.556 113.161 218.904 112.96 219.143 112.655C219.571 112.097 219.99 111.539 220.414 110.981C220.767 110.559 221.212 110.224 221.716 110.002C222.383 109.751 222.954 109.933 223.54 110.205L229.645 114.511C230.337 115.153 231.003 115.856 230.508 116.791C230.473 116.858 230.432 116.918 230.394 116.977L225.279 124.068C225.209 124.136 225.138 124.196 225.067 124.272C224.442 124.953 223.71 124.882 222.975 124.603C219.934 122.399 216.88 120.214 213.835 118.017L203.93 111.042C203.74 110.795 203.592 110.517 203.493 110.222C203.343 109.712 203.493 109.223 203.75 108.765C204.434 107.74 205.125 106.719 205.796 105.68C206.006 105.354 206.083 104.959 206.01 104.578C205.937 104.197 205.721 103.859 205.405 103.633C205.089 103.408 204.698 103.313 204.314 103.368C203.93 103.423 203.582 103.624 203.343 103.929C202.485 105.017 201.656 106.126 200.815 107.225C200.637 107.347 200.444 107.445 200.24 107.517C199.647 107.722 199.081 107.549 198.551 107.285L197.073 106.258L191.429 102.417C191.104 102.185 190.7 102.092 190.306 102.158C189.911 102.224 189.56 102.443 189.328 102.769C189.095 103.094 189.002 103.498 189.068 103.892C189.134 104.287 189.354 104.638 189.679 104.87L195.147 108.962L196.042 109.617C197.015 110.579 197.344 111.477 196.526 112.878C196.34 113.203 196.143 113.516 195.951 113.828C194.928 115.241 193.908 116.655 192.891 118.071C192.636 118.443 192.38 118.796 192.125 119.157C192.004 119.233 191.883 119.31 191.753 119.384C190.782 119.966 190.079 119.633 189.19 119.075C189.118 119.031 189.042 118.997 188.961 118.973L188.887 118.923C187.754 118.179 186.617 117.435 185.44 116.747C185.114 116.553 184.727 116.489 184.356 116.567C183.986 116.645 183.657 116.86 183.437 117.169C183.217 117.477 183.121 117.857 183.168 118.234C183.214 118.61 183.401 118.955 183.69 119.2C184.722 120.087 185.792 120.922 186.869 121.75C187.376 122.144 187.892 122.529 188.409 122.911C188.458 122.985 188.499 123.064 188.531 123.147C188.659 123.531 188.646 123.949 188.494 124.324C188.277 124.639 188.055 124.949 187.84 125.254C186.177 127.672 184.525 130.09 182.922 132.54C182.689 132.866 182.596 133.271 182.662 133.666C182.729 134.061 182.949 134.413 183.275 134.645C183.601 134.878 184.006 134.971 184.401 134.905C184.796 134.838 185.148 134.618 185.381 134.292ZM220.483 127.148C221.076 127.741 221.559 128.409 221.351 129.119C221.194 129.593 220.981 130.046 220.715 130.468C219.466 132.232 218.226 134.001 216.995 135.774L216.539 136.433C216.353 136.58 216.149 136.729 215.94 136.879C215.429 137.251 214.85 137.145 214.278 136.933L214.079 136.79C212.535 135.698 210.989 134.606 209.417 133.554C208.621 133.015 207.823 132.482 207.022 131.954C206.828 131.7 206.72 131.391 206.713 131.072C206.73 130.783 206.803 130.5 206.927 130.239C207.491 129.434 208.054 128.628 208.616 127.821L211.065 124.248C211.601 123.69 212.181 123.21 212.873 123.052C213.617 122.883 214.503 123.169 215.362 123.547C217.066 124.758 218.773 125.961 220.483 127.155V127.148ZM213.323 98.5799L213.269 98.526C212.471 97.6481 212.684 96.6139 213.149 95.6579C213.55 95.1296 213.952 94.6014 214.35 94.0713C215.442 92.6261 216.491 91.153 217.557 89.6891C217.609 89.6567 217.66 89.6207 217.707 89.5813C218.712 88.7033 219.804 88.5787 220.853 89.4399C221.279 89.8195 221.763 90.129 222.287 90.3569L226.825 93.6342C227.025 93.8445 227.173 94.0996 227.255 94.3782C227.441 95.1222 226.955 95.8253 226.594 96.4242C226.479 96.6102 226.371 96.7962 226.269 96.9822C225.153 98.5644 224.04 100.15 222.93 101.74C222.653 102.071 222.385 102.417 222.069 102.748C221.297 103.557 220.801 103.42 219.837 102.962C219.188 102.651 218.57 102.218 217.951 101.846C217.934 101.837 217.918 101.831 217.901 101.822L213.323 98.5799Z" fill="black"/>
<path d="M343.962 186.087L342.383 191.258C342.282 191.591 342.275 191.946 342.364 192.282C342.453 192.619 342.634 192.924 342.887 193.163C343.14 193.402 343.454 193.566 343.795 193.636C344.136 193.707 344.489 193.681 344.816 193.561L349.189 191.96L353.545 190.312C355.001 189.772 356.439 189.183 357.884 188.619C359.33 188.055 360.766 187.456 362.198 186.852C362.558 186.704 362.847 186.422 363.004 186.066C363.161 185.71 363.175 185.307 363.042 184.941C362.909 184.575 362.639 184.275 362.29 184.103C361.941 183.931 361.538 183.901 361.167 184.019C359.679 184.475 358.191 184.949 356.726 185.435C355.26 185.92 353.774 186.402 352.312 186.923L349.42 187.933C349.079 187.929 348.743 187.849 348.437 187.698C347.839 187.384 347.76 186.863 347.837 186.309L350.368 178.143C350.474 177.801 350.481 177.435 350.387 177.089C350.294 176.743 350.104 176.43 349.841 176.187C349.577 175.944 349.25 175.781 348.897 175.716C348.545 175.651 348.181 175.687 347.848 175.82L329.663 183.098L320.59 186.787C317.569 188.027 314.556 189.285 311.55 190.563C311.184 190.713 310.891 191.001 310.736 191.366C310.581 191.73 310.575 192.141 310.72 192.509C310.866 192.877 311.15 193.174 311.512 193.334C311.874 193.494 312.285 193.506 312.655 193.366C315.723 192.25 318.784 191.113 321.838 189.954L330.985 186.456L341.189 182.49C342.238 182.193 344.232 181.605 344.483 182.144C344.699 182.606 344.429 183.643 344.364 184.125C344.268 184.787 344.134 185.442 343.962 186.087Z" fill="black"/>
</svg>
