<svg width="20" height="20" viewBox="0 0 20 20" fill="none" xmlns="http://www.w3.org/2000/svg">
<path d="M17.98 5.03991C17.38 5.29991 16.76 5.47991 16.1 5.55991C16.78 5.15991 17.3 4.51991 17.54 3.73991C16.9 4.11991 16.2 4.37991 15.46 4.53991C14.86 3.89991 14 3.49991 13.06 3.49991C11.24 3.49991 9.78002 4.97991 9.78002 6.77991C9.78002 7.03991 9.80002 7.27991 9.86002 7.51991C7.14002 7.39991 4.74001 6.07991 3.12001 4.09991C1.96001 6.17991 3.26001 7.89991 4.12001 8.47991C3.60001 8.47991 3.08001 8.31991 2.64001 8.07991C2.64001 9.69991 3.78001 11.0399 5.26001 11.3399C4.94001 11.4399 4.22001 11.4999 3.78001 11.3999C4.20001 12.6999 5.42001 13.6599 6.84002 13.6799C5.72001 14.5599 4.08001 15.2599 1.98001 15.0399C3.44001 15.9799 5.16001 16.5199 7.02002 16.5199C13.06 16.5199 16.34 11.5199 16.34 7.19991C16.34 7.05991 16.34 6.91991 16.32 6.77991C17 6.27991 17.56 5.69991 17.98 5.03991Z" fill="white"/>
</svg>
